<?xml version="1.0" encoding="UTF-8" standalone="no"?>
<!DOCTYPE svg PUBLIC "-//W3C//DTD SVG 1.1//EN"
 "http://www.w3.org/Graphics/SVG/1.1/DTD/svg11.dtd">
<!-- Generated by graphviz version 2.38.0 (20140413.2041)
 -->
<!-- Title: controllers_diagram Pages: 1 -->
<svg width="917pt" height="909pt"
 viewBox="0.00 0.00 917.32 909.00" xmlns="http://www.w3.org/2000/svg" xmlns:xlink="http://www.w3.org/1999/xlink">
<g id="graph0" class="graph" transform="scale(1 1) rotate(0) translate(394.879 514.5)">
<title>controllers_diagram</title>
<polygon fill="white" stroke="none" points="-394.879,394.5 -394.879,-514.5 522.441,-514.5 522.441,394.5 -394.879,394.5"/>
<!-- _diagram_info -->
<g id="node1" class="node"><title>_diagram_info</title>
<text text-anchor="start" x="8.31226" y="178.9" font-family="Times,serif" font-size="13.00">Controllers diagram</text>
<text text-anchor="start" x="8.31226" y="191.9" font-family="Times,serif" font-size="13.00">Date: May 20 2015 &#45; 13:29</text>
<text text-anchor="start" x="8.31226" y="204.9" font-family="Times,serif" font-size="13.00">Migration version: 20150518120610</text>
<text text-anchor="start" x="8.31226" y="217.9" font-family="Times,serif" font-size="13.00">Generated by RailRoady 1.3.0</text>
<text text-anchor="start" x="8.31226" y="230.9" font-family="Times,serif" font-size="13.00">http://railroady.prestonlee.com</text>
</g>
<!-- ApplicationController -->
<g id="node2" class="node"><title>ApplicationController</title>
<path fill="none" stroke="black" d="M-260.476,271C-260.476,271 -107.524,271 -107.524,271 -101.524,271 -95.5239,265 -95.5239,259 -95.5239,259 -95.5239,151 -95.5239,151 -95.5239,145 -101.524,139 -107.524,139 -107.524,139 -260.476,139 -260.476,139 -266.476,139 -272.476,145 -272.476,151 -272.476,151 -272.476,259 -272.476,259 -272.476,265 -266.476,271 -260.476,271"/>
<text text-anchor="middle" x="-184" y="154.2" font-family="Times,serif" font-size="14.00">ApplicationController</text>
<polyline fill="none" stroke="black" points="-272.476,161 -95.5239,161 "/>
<polyline fill="none" stroke="black" points="-272.476,185 -95.5239,185 "/>
<text text-anchor="start" x="-264.476" y="200.2" font-family="Times,serif" font-size="14.00">configure_permitted_params</text>
<text text-anchor="start" x="-264.476" y="214.2" font-family="Times,serif" font-size="14.00">find_parent_record</text>
<text text-anchor="start" x="-264.476" y="228.2" font-family="Times,serif" font-size="14.00">nested_resource?</text>
<text text-anchor="start" x="-264.476" y="242.2" font-family="Times,serif" font-size="14.00">set_layout</text>
<polyline fill="none" stroke="black" points="-272.476,249 -95.5239,249 "/>
<text text-anchor="start" x="-264.476" y="264.2" font-family="Times,serif" font-size="14.00">_layout</text>
</g>
<!-- ChangesController -->
<g id="node3" class="node"><title>ChangesController</title>
<path fill="none" stroke="black" d="M-378.879,-273C-378.879,-273 -281.121,-273 -281.121,-273 -275.121,-273 -269.121,-279 -269.121,-285 -269.121,-285 -269.121,-351 -269.121,-351 -269.121,-357 -275.121,-363 -281.121,-363 -281.121,-363 -378.879,-363 -378.879,-363 -384.879,-363 -390.879,-357 -390.879,-351 -390.879,-351 -390.879,-285 -390.879,-285 -390.879,-279 -384.879,-273 -378.879,-273"/>
<text text-anchor="middle" x="-330" y="-347.8" font-family="Times,serif" font-size="14.00">ChangesController</text>
<polyline fill="none" stroke="black" points="-390.879,-341 -269.121,-341 "/>
<text text-anchor="start" x="-382.879" y="-325.8" font-family="Times,serif" font-size="14.00">create</text>
<polyline fill="none" stroke="black" points="-390.879,-319 -269.121,-319 "/>
<polyline fill="none" stroke="black" points="-390.879,-295 -269.121,-295 "/>
<text text-anchor="start" x="-382.879" y="-279.8" font-family="Times,serif" font-size="14.00">_layout</text>
</g>
<!-- CoachesController -->
<g id="node4" class="node"><title>CoachesController</title>
<path fill="none" stroke="black" d="M181.514,390C181.514,390 278.486,390 278.486,390 284.486,390 290.486,384 290.486,378 290.486,378 290.486,298 290.486,298 290.486,292 284.486,286 278.486,286 278.486,286 181.514,286 181.514,286 175.514,286 169.514,292 169.514,298 169.514,298 169.514,378 169.514,378 169.514,384 175.514,390 181.514,390"/>
<text text-anchor="middle" x="230" y="301.2" font-family="Times,serif" font-size="14.00">CoachesController</text>
<polyline fill="none" stroke="black" points="169.514,308 290.486,308 "/>
<text text-anchor="start" x="177.514" y="323.2" font-family="Times,serif" font-size="14.00">index</text>
<text text-anchor="start" x="177.514" y="337.2" font-family="Times,serif" font-size="14.00">show</text>
<polyline fill="none" stroke="black" points="169.514,344 290.486,344 "/>
<polyline fill="none" stroke="black" points="169.514,368 290.486,368 "/>
<text text-anchor="start" x="177.514" y="383.2" font-family="Times,serif" font-size="14.00">_layout</text>
</g>
<!-- CourtsController -->
<g id="node5" class="node"><title>CourtsController</title>
<path fill="none" stroke="black" d="M419.559,135C419.559,135 506.441,135 506.441,135 512.441,135 518.441,129 518.441,123 518.441,123 518.441,43 518.441,43 518.441,37 512.441,31 506.441,31 506.441,31 419.559,31 419.559,31 413.559,31 407.559,37 407.559,43 407.559,43 407.559,123 407.559,123 407.559,129 413.559,135 419.559,135"/>
<text text-anchor="middle" x="463" y="46.2" font-family="Times,serif" font-size="14.00">CourtsController</text>
<polyline fill="none" stroke="black" points="407.559,53 518.441,53 "/>
<text text-anchor="start" x="415.559" y="68.2" font-family="Times,serif" font-size="14.00">index</text>
<text text-anchor="start" x="415.559" y="82.2" font-family="Times,serif" font-size="14.00">show</text>
<polyline fill="none" stroke="black" points="407.559,89 518.441,89 "/>
<polyline fill="none" stroke="black" points="407.559,113 518.441,113 "/>
<text text-anchor="start" x="415.559" y="128.2" font-family="Times,serif" font-size="14.00">_layout</text>
</g>
<!-- Dashboard::DepositRequestsController -->
<g id="node6" class="node"><title>Dashboard::DepositRequestsController</title>
<path fill="none" stroke="black" d="M147.962,135C147.962,135 360.038,135 360.038,135 366.038,135 372.038,129 372.038,123 372.038,123 372.038,1 372.038,1 372.038,-5 366.038,-11 360.038,-11 360.038,-11 147.962,-11 147.962,-11 141.962,-11 135.962,-5 135.962,1 135.962,1 135.962,123 135.962,123 135.962,129 141.962,135 147.962,135"/>
<text text-anchor="middle" x="254" y="4.2" font-family="Times,serif" font-size="14.00">Dashboard::DepositRequestsController</text>
<polyline fill="none" stroke="black" points="135.962,11 372.038,11 "/>
<text text-anchor="start" x="143.962" y="26.2" font-family="Times,serif" font-size="14.00">create</text>
<text text-anchor="start" x="143.962" y="40.2" font-family="Times,serif" font-size="14.00">index</text>
<text text-anchor="start" x="143.962" y="54.2" font-family="Times,serif" font-size="14.00">new</text>
<text text-anchor="start" x="143.962" y="68.2" font-family="Times,serif" font-size="14.00">show</text>
<polyline fill="none" stroke="black" points="135.962,75 372.038,75 "/>
<polyline fill="none" stroke="black" points="135.962,99 372.038,99 "/>
<text text-anchor="start" x="143.962" y="114.2" font-family="Times,serif" font-size="14.00">_layout</text>
<text text-anchor="start" x="143.962" y="128.2" font-family="Times,serif" font-size="14.00">dr_params</text>
</g>
<!-- Dashboard::EventsController -->
<g id="node7" class="node"><title>Dashboard::EventsController</title>
<path fill="none" stroke="black" d="M147.962,-52C147.962,-52 304.038,-52 304.038,-52 310.038,-52 316.038,-58 316.038,-64 316.038,-64 316.038,-186 316.038,-186 316.038,-192 310.038,-198 304.038,-198 304.038,-198 147.962,-198 147.962,-198 141.962,-198 135.962,-192 135.962,-186 135.962,-186 135.962,-64 135.962,-64 135.962,-58 141.962,-52 147.962,-52"/>
<text text-anchor="middle" x="226" y="-182.8" font-family="Times,serif" font-size="14.00">Dashboard::EventsController</text>
<polyline fill="none" stroke="black" points="135.962,-176 316.038,-176 "/>
<text text-anchor="start" x="143.962" y="-160.8" font-family="Times,serif" font-size="14.00">create</text>
<text text-anchor="start" x="143.962" y="-146.8" font-family="Times,serif" font-size="14.00">index</text>
<text text-anchor="start" x="143.962" y="-132.8" font-family="Times,serif" font-size="14.00">show</text>
<polyline fill="none" stroke="black" points="135.962,-126 316.038,-126 "/>
<polyline fill="none" stroke="black" points="135.962,-102 316.038,-102 "/>
<text text-anchor="start" x="143.962" y="-86.8" font-family="Times,serif" font-size="14.00">_layout</text>
<text text-anchor="start" x="143.962" y="-72.8" font-family="Times,serif" font-size="14.00">event_params</text>
<text text-anchor="start" x="143.962" y="-58.8" font-family="Times,serif" font-size="14.00">find_event</text>
</g>
<!-- Dashboard::OrdersController -->
<g id="node8" class="node"><title>Dashboard::OrdersController</title>
<path fill="none" stroke="black" d="M28.9653,-307C28.9653,-307 185.035,-307 185.035,-307 191.035,-307 197.035,-313 197.035,-319 197.035,-319 197.035,-385 197.035,-385 197.035,-391 191.035,-397 185.035,-397 185.035,-397 28.9653,-397 28.9653,-397 22.9653,-397 16.9653,-391 16.9653,-385 16.9653,-385 16.9653,-319 16.9653,-319 16.9653,-313 22.9653,-307 28.9653,-307"/>
<text text-anchor="middle" x="107" y="-381.8" font-family="Times,serif" font-size="14.00">Dashboard::OrdersController</text>
<polyline fill="none" stroke="black" points="16.9653,-375 197.035,-375 "/>
<text text-anchor="start" x="24.9653" y="-359.8" font-family="Times,serif" font-size="14.00">index</text>
<polyline fill="none" stroke="black" points="16.9653,-353 197.035,-353 "/>
<polyline fill="none" stroke="black" points="16.9653,-329 197.035,-329 "/>
<text text-anchor="start" x="24.9653" y="-313.8" font-family="Times,serif" font-size="14.00">_layout</text>
</g>
<!-- Dashboard::PaymentsController -->
<g id="node9" class="node"><title>Dashboard::PaymentsController</title>
<path fill="none" stroke="black" d="M249.793,254C249.793,254 422.207,254 422.207,254 428.207,254 434.207,248 434.207,242 434.207,242 434.207,176 434.207,176 434.207,170 428.207,164 422.207,164 422.207,164 249.793,164 249.793,164 243.793,164 237.793,170 237.793,176 237.793,176 237.793,242 237.793,242 237.793,248 243.793,254 249.793,254"/>
<text text-anchor="middle" x="336" y="179.2" font-family="Times,serif" font-size="14.00">Dashboard::PaymentsController</text>
<polyline fill="none" stroke="black" points="237.793,186 434.207,186 "/>
<text text-anchor="start" x="245.793" y="201.2" font-family="Times,serif" font-size="14.00">success</text>
<polyline fill="none" stroke="black" points="237.793,208 434.207,208 "/>
<polyline fill="none" stroke="black" points="237.793,232 434.207,232 "/>
<text text-anchor="start" x="245.793" y="247.2" font-family="Times,serif" font-size="14.00">_layout</text>
</g>
<!-- Dashboard::PicturesController -->
<g id="node10" class="node"><title>Dashboard::PicturesController</title>
<path fill="none" stroke="black" d="M250.462,-239C250.462,-239 413.538,-239 413.538,-239 419.538,-239 425.538,-245 425.538,-251 425.538,-251 425.538,-373 425.538,-373 425.538,-379 419.538,-385 413.538,-385 413.538,-385 250.462,-385 250.462,-385 244.462,-385 238.462,-379 238.462,-373 238.462,-373 238.462,-251 238.462,-251 238.462,-245 244.462,-239 250.462,-239"/>
<text text-anchor="middle" x="332" y="-369.8" font-family="Times,serif" font-size="14.00">Dashboard::PicturesController</text>
<polyline fill="none" stroke="black" points="238.462,-363 425.538,-363 "/>
<text text-anchor="start" x="246.462" y="-347.8" font-family="Times,serif" font-size="14.00">create</text>
<text text-anchor="start" x="246.462" y="-333.8" font-family="Times,serif" font-size="14.00">destroy</text>
<text text-anchor="start" x="246.462" y="-319.8" font-family="Times,serif" font-size="14.00">index</text>
<polyline fill="none" stroke="black" points="238.462,-313 425.538,-313 "/>
<polyline fill="none" stroke="black" points="238.462,-289 425.538,-289 "/>
<text text-anchor="start" x="246.462" y="-273.8" font-family="Times,serif" font-size="14.00">_layout</text>
<text text-anchor="start" x="246.462" y="-259.8" font-family="Times,serif" font-size="14.00">find_imageable</text>
<text text-anchor="start" x="246.462" y="-245.8" font-family="Times,serif" font-size="14.00">find_picture</text>
</g>
<!-- Dashboard::SpecialPricesController -->
<g id="node11" class="node"><title>Dashboard::SpecialPricesController</title>
<path fill="none" stroke="black" d="M-106.697,101C-106.697,101 86.6968,101 86.6968,101 92.6968,101 98.6968,95 98.6968,89 98.6968,89 98.6968,-89 98.6968,-89 98.6968,-95 92.6968,-101 86.6968,-101 86.6968,-101 -106.697,-101 -106.697,-101 -112.697,-101 -118.697,-95 -118.697,-89 -118.697,-89 -118.697,89 -118.697,89 -118.697,95 -112.697,101 -106.697,101"/>
<text text-anchor="middle" x="-10" y="-85.8" font-family="Times,serif" font-size="14.00">Dashboard::SpecialPricesController</text>
<polyline fill="none" stroke="black" points="-118.697,-79 98.6968,-79 "/>
<text text-anchor="start" x="-110.697" y="-63.8" font-family="Times,serif" font-size="14.00">create</text>
<text text-anchor="start" x="-110.697" y="-49.8" font-family="Times,serif" font-size="14.00">destroy</text>
<text text-anchor="start" x="-110.697" y="-35.8" font-family="Times,serif" font-size="14.00">edit</text>
<text text-anchor="start" x="-110.697" y="-21.8" font-family="Times,serif" font-size="14.00">index</text>
<text text-anchor="start" x="-110.697" y="-7.8" font-family="Times,serif" font-size="14.00">new</text>
<text text-anchor="start" x="-110.697" y="6.2" font-family="Times,serif" font-size="14.00">show</text>
<text text-anchor="start" x="-110.697" y="20.2" font-family="Times,serif" font-size="14.00">update</text>
<polyline fill="none" stroke="black" points="-118.697,27 98.6968,27 "/>
<polyline fill="none" stroke="black" points="-118.697,51 98.6968,51 "/>
<text text-anchor="start" x="-110.697" y="66.2" font-family="Times,serif" font-size="14.00">_layout</text>
<text text-anchor="start" x="-110.697" y="80.2" font-family="Times,serif" font-size="14.00">set_special_price</text>
<text text-anchor="start" x="-110.697" y="94.2" font-family="Times,serif" font-size="14.00">special_price_params</text>
</g>
<!-- Dashboard::StadiumsController -->
<g id="node12" class="node"><title>Dashboard::StadiumsController</title>
<path fill="none" stroke="black" d="M-73.0449,-137C-73.0449,-137 97.0449,-137 97.0449,-137 103.045,-137 109.045,-143 109.045,-149 109.045,-149 109.045,-257 109.045,-257 109.045,-263 103.045,-269 97.0449,-269 97.0449,-269 -73.0449,-269 -73.0449,-269 -79.0449,-269 -85.0449,-263 -85.0449,-257 -85.0449,-257 -85.0449,-149 -85.0449,-149 -85.0449,-143 -79.0449,-137 -73.0449,-137"/>
<text text-anchor="middle" x="12" y="-253.8" font-family="Times,serif" font-size="14.00">Dashboard::StadiumsController</text>
<polyline fill="none" stroke="black" points="-85.0449,-247 109.045,-247 "/>
<text text-anchor="start" x="-77.0449" y="-231.8" font-family="Times,serif" font-size="14.00">edit</text>
<text text-anchor="start" x="-77.0449" y="-217.8" font-family="Times,serif" font-size="14.00">update</text>
<polyline fill="none" stroke="black" points="-85.0449,-211 109.045,-211 "/>
<polyline fill="none" stroke="black" points="-85.0449,-187 109.045,-187 "/>
<text text-anchor="start" x="-77.0449" y="-171.8" font-family="Times,serif" font-size="14.00">_layout</text>
<text text-anchor="start" x="-77.0449" y="-157.8" font-family="Times,serif" font-size="14.00">find_stadium</text>
<text text-anchor="start" x="-77.0449" y="-143.8" font-family="Times,serif" font-size="14.00">stadium_params</text>
</g>
<!-- DashboardController -->
<g id="node13" class="node"><title>DashboardController</title>
<path fill="none" stroke="black" d="M11.9033,373C11.9033,373 122.097,373 122.097,373 128.097,373 134.097,367 134.097,361 134.097,361 134.097,281 134.097,281 134.097,275 128.097,269 122.097,269 122.097,269 11.9033,269 11.9033,269 5.90332,269 -0.0966797,275 -0.0966797,281 -0.0966797,281 -0.0966797,361 -0.0966797,361 -0.0966797,367 5.90332,373 11.9033,373"/>
<text text-anchor="middle" x="67" y="284.2" font-family="Times,serif" font-size="14.00">DashboardController</text>
<polyline fill="none" stroke="black" points="-0.0966797,291 134.097,291 "/>
<text text-anchor="start" x="7.90332" y="306.2" font-family="Times,serif" font-size="14.00">payment_settings</text>
<text text-anchor="start" x="7.90332" y="320.2" font-family="Times,serif" font-size="14.00">show</text>
<polyline fill="none" stroke="black" points="-0.0966797,327 134.097,327 "/>
<polyline fill="none" stroke="black" points="-0.0966797,351 134.097,351 "/>
<text text-anchor="start" x="7.90332" y="366.2" font-family="Times,serif" font-size="14.00">_layout</text>
</g>
<!-- EventsController -->
<g id="node14" class="node"><title>EventsController</title>
<path fill="none" stroke="black" d="M-225.824,-239C-225.824,-239 -138.176,-239 -138.176,-239 -132.176,-239 -126.176,-245 -126.176,-251 -126.176,-251 -126.176,-387 -126.176,-387 -126.176,-393 -132.176,-399 -138.176,-399 -138.176,-399 -225.824,-399 -225.824,-399 -231.824,-399 -237.824,-393 -237.824,-387 -237.824,-387 -237.824,-251 -237.824,-251 -237.824,-245 -231.824,-239 -225.824,-239"/>
<text text-anchor="middle" x="-182" y="-383.8" font-family="Times,serif" font-size="14.00">EventsController</text>
<polyline fill="none" stroke="black" points="-237.824,-377 -126.176,-377 "/>
<text text-anchor="start" x="-229.824" y="-361.8" font-family="Times,serif" font-size="14.00">create</text>
<text text-anchor="start" x="-229.824" y="-347.8" font-family="Times,serif" font-size="14.00">edit</text>
<text text-anchor="start" x="-229.824" y="-333.8" font-family="Times,serif" font-size="14.00">index</text>
<text text-anchor="start" x="-229.824" y="-319.8" font-family="Times,serif" font-size="14.00">show</text>
<text text-anchor="start" x="-229.824" y="-305.8" font-family="Times,serif" font-size="14.00">update</text>
<polyline fill="none" stroke="black" points="-237.824,-299 -126.176,-299 "/>
<polyline fill="none" stroke="black" points="-237.824,-275 -126.176,-275 "/>
<text text-anchor="start" x="-229.824" y="-259.8" font-family="Times,serif" font-size="14.00">_layout</text>
<text text-anchor="start" x="-229.824" y="-245.8" font-family="Times,serif" font-size="14.00">event_params</text>
</g>
<!-- OrdersController -->
<g id="node15" class="node"><title>OrdersController</title>
<path fill="none" stroke="black" d="M-259.821,-1C-259.821,-1 -172.179,-1 -172.179,-1 -166.179,-1 -160.179,-7 -160.179,-13 -160.179,-13 -160.179,-149 -160.179,-149 -160.179,-155 -166.179,-161 -172.179,-161 -172.179,-161 -259.821,-161 -259.821,-161 -265.821,-161 -271.821,-155 -271.821,-149 -271.821,-149 -271.821,-13 -271.821,-13 -271.821,-7 -265.821,-1 -259.821,-1"/>
<text text-anchor="middle" x="-216" y="-145.8" font-family="Times,serif" font-size="14.00">OrdersController</text>
<polyline fill="none" stroke="black" points="-271.821,-139 -160.179,-139 "/>
<text text-anchor="start" x="-263.821" y="-123.8" font-family="Times,serif" font-size="14.00">create</text>
<text text-anchor="start" x="-263.821" y="-109.8" font-family="Times,serif" font-size="14.00">index</text>
<text text-anchor="start" x="-263.821" y="-95.8" font-family="Times,serif" font-size="14.00">new</text>
<text text-anchor="start" x="-263.821" y="-81.8" font-family="Times,serif" font-size="14.00">pay</text>
<text text-anchor="start" x="-263.821" y="-67.8" font-family="Times,serif" font-size="14.00">show</text>
<text text-anchor="start" x="-263.821" y="-53.8" font-family="Times,serif" font-size="14.00">total</text>
<polyline fill="none" stroke="black" points="-271.821,-47 -160.179,-47 "/>
<polyline fill="none" stroke="black" points="-271.821,-23 -160.179,-23 "/>
<text text-anchor="start" x="-263.821" y="-7.8" font-family="Times,serif" font-size="14.00">_layout</text>
</g>
<!-- PicturesController -->
<g id="node16" class="node"><title>PicturesController</title>
<path fill="none" stroke="black" d="M334.676,390C334.676,390 429.324,390 429.324,390 435.324,390 441.324,384 441.324,378 441.324,378 441.324,296 441.324,296 441.324,290 435.324,284 429.324,284 429.324,284 334.676,284 334.676,284 328.676,284 322.676,290 322.676,296 322.676,296 322.676,378 322.676,378 322.676,384 328.676,390 334.676,390"/>
<text text-anchor="middle" x="382" y="299.2" font-family="Times,serif" font-size="14.00">PicturesController</text>
<polyline fill="none" stroke="black" points="322.676,306 441.324,306 "/>
<polyline fill="none" stroke="black" points="322.676,330 441.324,330 "/>
<polyline fill="none" stroke="black" points="322.676,354 441.324,354 "/>
<text text-anchor="start" x="330.676" y="369.2" font-family="Times,serif" font-size="14.00">_layout</text>
<text text-anchor="start" x="330.676" y="383.2" font-family="Times,serif" font-size="14.00">find_picture</text>
</g>
<!-- ReviewsController -->
<g id="node17" class="node"><title>ReviewsController</title>
<path fill="none" stroke="black" d="M369.121,-52C369.121,-52 466.879,-52 466.879,-52 472.879,-52 478.879,-58 478.879,-64 478.879,-64 478.879,-172 478.879,-172 478.879,-178 472.879,-184 466.879,-184 466.879,-184 369.121,-184 369.121,-184 363.121,-184 357.121,-178 357.121,-172 357.121,-172 357.121,-64 357.121,-64 357.121,-58 363.121,-52 369.121,-52"/>
<text text-anchor="middle" x="418" y="-168.8" font-family="Times,serif" font-size="14.00">ReviewsController</text>
<polyline fill="none" stroke="black" points="357.121,-162 478.879,-162 "/>
<text text-anchor="start" x="365.121" y="-146.8" font-family="Times,serif" font-size="14.00">create</text>
<text text-anchor="start" x="365.121" y="-132.8" font-family="Times,serif" font-size="14.00">index</text>
<polyline fill="none" stroke="black" points="357.121,-126 478.879,-126 "/>
<polyline fill="none" stroke="black" points="357.121,-102 478.879,-102 "/>
<text text-anchor="start" x="365.121" y="-86.8" font-family="Times,serif" font-size="14.00">_layout</text>
<text text-anchor="start" x="365.121" y="-72.8" font-family="Times,serif" font-size="14.00">find_review</text>
<text text-anchor="start" x="365.121" y="-58.8" font-family="Times,serif" font-size="14.00">review_params</text>
</g>
<!-- SalesController -->
<g id="node18" class="node"><title>SalesController</title>
<path fill="none" stroke="black" d="M-225.548,390C-225.548,390 -146.452,390 -146.452,390 -140.452,390 -134.452,384 -134.452,378 -134.452,378 -134.452,312 -134.452,312 -134.452,306 -140.452,300 -146.452,300 -146.452,300 -225.548,300 -225.548,300 -231.548,300 -237.548,306 -237.548,312 -237.548,312 -237.548,378 -237.548,378 -237.548,384 -231.548,390 -225.548,390"/>
<text text-anchor="middle" x="-186" y="315.2" font-family="Times,serif" font-size="14.00">SalesController</text>
<polyline fill="none" stroke="black" points="-237.548,322 -134.452,322 "/>
<text text-anchor="start" x="-229.548" y="337.2" font-family="Times,serif" font-size="14.00">index</text>
<polyline fill="none" stroke="black" points="-237.548,344 -134.452,344 "/>
<polyline fill="none" stroke="black" points="-237.548,368 -134.452,368 "/>
<text text-anchor="start" x="-229.548" y="383.2" font-family="Times,serif" font-size="14.00">_layout</text>
</g>
<!-- StadiumsController -->
<g id="node19" class="node"><title>StadiumsController</title>
<path fill="none" stroke="black" d="M-378.831,-392C-378.831,-392 -277.169,-392 -277.169,-392 -271.169,-392 -265.169,-398 -265.169,-404 -265.169,-404 -265.169,-498 -265.169,-498 -265.169,-504 -271.169,-510 -277.169,-510 -277.169,-510 -378.831,-510 -378.831,-510 -384.831,-510 -390.831,-504 -390.831,-498 -390.831,-498 -390.831,-404 -390.831,-404 -390.831,-398 -384.831,-392 -378.831,-392"/>
<text text-anchor="middle" x="-328" y="-494.8" font-family="Times,serif" font-size="14.00">StadiumsController</text>
<polyline fill="none" stroke="black" points="-390.831,-488 -265.169,-488 "/>
<text text-anchor="start" x="-382.831" y="-472.8" font-family="Times,serif" font-size="14.00">index</text>
<text text-anchor="start" x="-382.831" y="-458.8" font-family="Times,serif" font-size="14.00">show</text>
<polyline fill="none" stroke="black" points="-390.831,-452 -265.169,-452 "/>
<polyline fill="none" stroke="black" points="-390.831,-428 -265.169,-428 "/>
<text text-anchor="start" x="-382.831" y="-412.8" font-family="Times,serif" font-size="14.00">_layout</text>
<text text-anchor="start" x="-382.831" y="-398.8" font-family="Times,serif" font-size="14.00">set_stadium</text>
</g>
<!-- VisitorsController -->
<g id="node20" class="node"><title>VisitorsController</title>
<path fill="none" stroke="black" d="M-378.524,390C-378.524,390 -285.476,390 -285.476,390 -279.476,390 -273.476,384 -273.476,378 -273.476,378 -273.476,312 -273.476,312 -273.476,306 -279.476,300 -285.476,300 -285.476,300 -378.524,300 -378.524,300 -384.524,300 -390.524,306 -390.524,312 -390.524,312 -390.524,378 -390.524,378 -390.524,384 -384.524,390 -378.524,390"/>
<text text-anchor="middle" x="-332" y="315.2" font-family="Times,serif" font-size="14.00">VisitorsController</text>
<polyline fill="none" stroke="black" points="-390.524,322 -273.476,322 "/>
<text text-anchor="start" x="-382.524" y="337.2" font-family="Times,serif" font-size="14.00">index</text>
<polyline fill="none" stroke="black" points="-390.524,344 -273.476,344 "/>
<polyline fill="none" stroke="black" points="-390.524,368 -273.476,368 "/>
<text text-anchor="start" x="-382.524" y="383.2" font-family="Times,serif" font-size="14.00">_layout</text>
</g>
</g>
</svg>
