<?xml version="1.0" encoding="UTF-8" standalone="no"?>
<!DOCTYPE svg PUBLIC "-//W3C//DTD SVG 1.1//EN"
 "http://www.w3.org/Graphics/SVG/1.1/DTD/svg11.dtd">
<!-- Generated by graphviz version 2.38.0 (20140413.2041)
 -->
<!-- Title: controllers_diagram Pages: 1 -->
<svg width="5792pt" height="260pt"
 viewBox="0.00 0.00 5791.76 260.00" xmlns="http://www.w3.org/2000/svg" xmlns:xlink="http://www.w3.org/1999/xlink">
<g id="graph0" class="graph" transform="scale(1 1) rotate(0) translate(4 256)">
<title>controllers_diagram</title>
<polygon fill="white" stroke="none" points="-4,4 -4,-256 5787.76,-256 5787.76,4 -4,4"/>
<!-- Admin::CategoriesController -->
<g id="node1" class="node"><title>Admin::CategoriesController</title>
<ellipse fill="none" stroke="black" cx="113.754" cy="-90" rx="113.509" ry="18"/>
<text text-anchor="middle" x="113.754" y="-85.8" font-family="Times,serif" font-size="14.00">Admin::CategoriesController</text>
</g>
<!-- Admin::OptionsController -->
<g id="node2" class="node"><title>Admin::OptionsController</title>
<ellipse fill="none" stroke="black" cx="349.754" cy="-90" rx="103.887" ry="18"/>
<text text-anchor="middle" x="349.754" y="-85.8" font-family="Times,serif" font-size="14.00">Admin::OptionsController</text>
</g>
<!-- Admin::StadiumsController -->
<g id="node3" class="node"><title>Admin::StadiumsController</title>
<ellipse fill="none" stroke="black" cx="580.754" cy="-90" rx="108.715" ry="18"/>
<text text-anchor="middle" x="580.754" y="-85.8" font-family="Times,serif" font-size="14.00">Admin::StadiumsController</text>
</g>
<!-- Admin::StaticPagesController -->
<g id="node4" class="node"><title>Admin::StaticPagesController</title>
<ellipse fill="none" stroke="black" cx="824.754" cy="-90" rx="116.916" ry="18"/>
<text text-anchor="middle" x="824.754" y="-85.8" font-family="Times,serif" font-size="14.00">Admin::StaticPagesController</text>
</g>
<!-- Admin::UsersController -->
<g id="node5" class="node"><title>Admin::UsersController</title>
<ellipse fill="none" stroke="black" cx="1055.75" cy="-90" rx="96.1518" ry="18"/>
<text text-anchor="middle" x="1055.75" y="-85.8" font-family="Times,serif" font-size="14.00">Admin::UsersController</text>
</g>
<!-- AdminController -->
<g id="node6" class="node"><title>AdminController</title>
<ellipse fill="none" stroke="black" cx="702.754" cy="-162" rx="71.0445" ry="18"/>
<text text-anchor="middle" x="702.754" y="-157.8" font-family="Times,serif" font-size="14.00">AdminController</text>
</g>
<!-- AdminController&#45;&gt;Admin::CategoriesController -->
<g id="edge1" class="edge"><title>AdminController&#45;&gt;Admin::CategoriesController</title>
<path fill="none" stroke="black" d="M638.624,-154.201C548.724,-144.556 380.149,-126.061 236.754,-108 223.387,-106.316 209.215,-104.441 195.428,-102.569"/>
</g>
<!-- AdminController&#45;&gt;Admin::OptionsController -->
<g id="edge2" class="edge"><title>AdminController&#45;&gt;Admin::OptionsController</title>
<path fill="none" stroke="black" d="M648.757,-150.292C586.084,-137.864 482.748,-117.373 415.467,-104.031"/>
</g>
<!-- AdminController&#45;&gt;Admin::StadiumsController -->
<g id="edge3" class="edge"><title>AdminController&#45;&gt;Admin::StadiumsController</title>
<path fill="none" stroke="black" d="M675.375,-145.291C655.704,-134.004 629.25,-118.825 609.314,-107.387"/>
</g>
<!-- AdminController&#45;&gt;Admin::StaticPagesController -->
<g id="edge4" class="edge"><title>AdminController&#45;&gt;Admin::StaticPagesController</title>
<path fill="none" stroke="black" d="M730.133,-145.291C749.664,-134.085 775.881,-119.042 795.766,-107.633"/>
</g>
<!-- AdminController&#45;&gt;Admin::UsersController -->
<g id="edge5" class="edge"><title>AdminController&#45;&gt;Admin::UsersController</title>
<path fill="none" stroke="black" d="M756.752,-150.292C820.1,-137.73 924.994,-116.93 992.205,-103.602"/>
</g>
<!-- ApplicationController -->
<g id="node7" class="node"><title>ApplicationController</title>
<ellipse fill="none" stroke="black" cx="3844.75" cy="-234" rx="88.417" ry="18"/>
<text text-anchor="middle" x="3844.75" y="-229.8" font-family="Times,serif" font-size="14.00">ApplicationController</text>
</g>
<!-- ApplicationController&#45;&gt;AdminController -->
<g id="edge6" class="edge"><title>ApplicationController&#45;&gt;AdminController</title>
<path fill="none" stroke="black" d="M3757.44,-231.055C3300.28,-220.87 1187.68,-173.804 773.367,-164.573"/>
</g>
<!-- ChangesController -->
<g id="node8" class="node"><title>ChangesController</title>
<ellipse fill="none" stroke="black" cx="2905.75" cy="-162" rx="76.8244" ry="18"/>
<text text-anchor="middle" x="2905.75" y="-157.8" font-family="Times,serif" font-size="14.00">ChangesController</text>
</g>
<!-- ApplicationController&#45;&gt;ChangesController -->
<g id="edge7" class="edge"><title>ApplicationController&#45;&gt;ChangesController</title>
<path fill="none" stroke="black" d="M3757.2,-231.4C3602.27,-227.714 3269.87,-215.966 2991.75,-180 2981.49,-178.673 2970.61,-176.851 2960.17,-174.891"/>
</g>
<!-- CoachesController -->
<g id="node12" class="node"><title>CoachesController</title>
<ellipse fill="none" stroke="black" cx="3076.75" cy="-162" rx="76.3312" ry="18"/>
<text text-anchor="middle" x="3076.75" y="-157.8" font-family="Times,serif" font-size="14.00">CoachesController</text>
</g>
<!-- ApplicationController&#45;&gt;CoachesController -->
<g id="edge11" class="edge"><title>ApplicationController&#45;&gt;CoachesController</title>
<path fill="none" stroke="black" d="M3758.95,-229.648C3629.18,-223.832 3375.44,-209.55 3161.75,-180 3151.77,-178.619 3141.18,-176.796 3131,-174.858"/>
</g>
<!-- CourtsController -->
<g id="node13" class="node"><title>CourtsController</title>
<ellipse fill="none" stroke="black" cx="3240.75" cy="-162" rx="70.0841" ry="18"/>
<text text-anchor="middle" x="3240.75" y="-157.8" font-family="Times,serif" font-size="14.00">CourtsController</text>
</g>
<!-- ApplicationController&#45;&gt;CourtsController -->
<g id="edge12" class="edge"><title>ApplicationController&#45;&gt;CourtsController</title>
<path fill="none" stroke="black" d="M3762.1,-227.515C3658.36,-219.975 3475.18,-204.49 3319.75,-180 3310.33,-178.515 3300.34,-176.62 3290.75,-174.636"/>
</g>
<!-- DashboardController -->
<g id="node31" class="node"><title>DashboardController</title>
<ellipse fill="none" stroke="black" cx="3413.75" cy="-162" rx="84.5341" ry="18"/>
<text text-anchor="middle" x="3413.75" y="-157.8" font-family="Times,serif" font-size="14.00">DashboardController</text>
</g>
<!-- ApplicationController&#45;&gt;DashboardController -->
<g id="edge30" class="edge"><title>ApplicationController&#45;&gt;DashboardController</title>
<path fill="none" stroke="black" d="M3775.73,-222.698C3707.36,-212.372 3599.72,-195.783 3506.75,-180 3496.56,-178.269 3485.75,-176.361 3475.25,-174.467"/>
</g>
<!-- EventsController -->
<g id="node32" class="node"><title>EventsController</title>
<ellipse fill="none" stroke="black" cx="3586.75" cy="-162" rx="70.5513" ry="18"/>
<text text-anchor="middle" x="3586.75" y="-157.8" font-family="Times,serif" font-size="14.00">EventsController</text>
</g>
<!-- ApplicationController&#45;&gt;EventsController -->
<g id="edge31" class="edge"><title>ApplicationController&#45;&gt;EventsController</title>
<path fill="none" stroke="black" d="M3794.09,-219.254C3747.42,-206.592 3678.74,-187.958 3633.4,-175.655"/>
</g>
<!-- FeedbackController -->
<g id="node33" class="node"><title>FeedbackController</title>
<ellipse fill="none" stroke="black" cx="3755.75" cy="-162" rx="80.1817" ry="18"/>
<text text-anchor="middle" x="3755.75" y="-157.8" font-family="Times,serif" font-size="14.00">FeedbackController</text>
</g>
<!-- ApplicationController&#45;&gt;FeedbackController -->
<g id="edge32" class="edge"><title>ApplicationController&#45;&gt;FeedbackController</title>
<path fill="none" stroke="black" d="M3823.66,-216.411C3809.48,-205.252 3790.85,-190.604 3776.69,-179.47"/>
</g>
<!-- PaymentsController -->
<g id="node35" class="node"><title>PaymentsController</title>
<ellipse fill="none" stroke="black" cx="3934.75" cy="-162" rx="80.6921" ry="18"/>
<text text-anchor="middle" x="3934.75" y="-157.8" font-family="Times,serif" font-size="14.00">PaymentsController</text>
</g>
<!-- ApplicationController&#45;&gt;PaymentsController -->
<g id="edge34" class="edge"><title>ApplicationController&#45;&gt;PaymentsController</title>
<path fill="none" stroke="black" d="M3866.08,-216.411C3880.43,-205.252 3899.26,-190.604 3913.58,-179.47"/>
</g>
<!-- PicturesController -->
<g id="node36" class="node"><title>PicturesController</title>
<ellipse fill="none" stroke="black" cx="4108.75" cy="-162" rx="74.8948" ry="18"/>
<text text-anchor="middle" x="4108.75" y="-157.8" font-family="Times,serif" font-size="14.00">PicturesController</text>
</g>
<!-- ApplicationController&#45;&gt;PicturesController -->
<g id="edge35" class="edge"><title>ApplicationController&#45;&gt;PicturesController</title>
<path fill="none" stroke="black" d="M3896.28,-219.337C3943.85,-206.724 4013.96,-188.134 4060.47,-175.802"/>
</g>
<!-- ReviewsController -->
<g id="node37" class="node"><title>ReviewsController</title>
<ellipse fill="none" stroke="black" cx="4278.75" cy="-162" rx="76.8244" ry="18"/>
<text text-anchor="middle" x="4278.75" y="-157.8" font-family="Times,serif" font-size="14.00">ReviewsController</text>
</g>
<!-- ApplicationController&#45;&gt;ReviewsController -->
<g id="edge36" class="edge"><title>ApplicationController&#45;&gt;ReviewsController</title>
<path fill="none" stroke="black" d="M3915.55,-223.149C3985.97,-213.132 4097.04,-196.741 4192.75,-180 4202.5,-178.296 4212.84,-176.361 4222.84,-174.422"/>
</g>
<!-- SalesController -->
<g id="node38" class="node"><title>SalesController</title>
<ellipse fill="none" stroke="black" cx="4438.75" cy="-162" rx="65.2477" ry="18"/>
<text text-anchor="middle" x="4438.75" y="-157.8" font-family="Times,serif" font-size="14.00">SalesController</text>
</g>
<!-- ApplicationController&#45;&gt;SalesController -->
<g id="edge37" class="edge"><title>ApplicationController&#45;&gt;SalesController</title>
<path fill="none" stroke="black" d="M3927.58,-227.747C4030.54,-220.484 4211.43,-205.325 4364.75,-180 4373.6,-178.539 4382.96,-176.655 4391.95,-174.675"/>
</g>
<!-- StadiumsController -->
<g id="node40" class="node"><title>StadiumsController</title>
<ellipse fill="none" stroke="black" cx="4601.75" cy="-162" rx="79.2557" ry="18"/>
<text text-anchor="middle" x="4601.75" y="-157.8" font-family="Times,serif" font-size="14.00">StadiumsController</text>
</g>
<!-- ApplicationController&#45;&gt;StadiumsController -->
<g id="edge39" class="edge"><title>ApplicationController&#45;&gt;StadiumsController</title>
<path fill="none" stroke="black" d="M3929.96,-229.234C4057.23,-222.932 4304.36,-208.084 4512.75,-180 4523.36,-178.571 4534.6,-176.702 4545.41,-174.727"/>
</g>
<!-- StaticPagesController -->
<g id="node41" class="node"><title>StaticPagesController</title>
<ellipse fill="none" stroke="black" cx="4786.75" cy="-162" rx="87.4567" ry="18"/>
<text text-anchor="middle" x="4786.75" y="-157.8" font-family="Times,serif" font-size="14.00">StaticPagesController</text>
</g>
<!-- ApplicationController&#45;&gt;StaticPagesController -->
<g id="edge40" class="edge"><title>ApplicationController&#45;&gt;StaticPagesController</title>
<path fill="none" stroke="black" d="M3931.71,-230.724C4085.21,-226 4414.06,-212.703 4689.75,-180 4701.3,-178.631 4713.55,-176.789 4725.33,-174.823"/>
</g>
<!-- VisitorsController -->
<g id="node42" class="node"><title>VisitorsController</title>
<ellipse fill="none" stroke="black" cx="4965.75" cy="-162" rx="73.874" ry="18"/>
<text text-anchor="middle" x="4965.75" y="-157.8" font-family="Times,serif" font-size="14.00">VisitorsController</text>
</g>
<!-- ApplicationController&#45;&gt;VisitorsController -->
<g id="edge41" class="edge"><title>ApplicationController&#45;&gt;VisitorsController</title>
<path fill="none" stroke="black" d="M3932.98,-232.975C4112.53,-231.939 4533.03,-224.485 4882.75,-180 4892.82,-178.719 4903.49,-176.894 4913.71,-174.911"/>
</g>
<!-- Coach::CourtsController -->
<g id="node9" class="node"><title>Coach::CourtsController</title>
<ellipse fill="none" stroke="black" cx="1267.75" cy="-90" rx="97.5967" ry="18"/>
<text text-anchor="middle" x="1267.75" y="-85.8" font-family="Times,serif" font-size="14.00">Coach::CourtsController</text>
</g>
<!-- Coach::EventsController -->
<g id="node10" class="node"><title>Coach::EventsController</title>
<ellipse fill="none" stroke="black" cx="5263.75" cy="-90" rx="98.0639" ry="18"/>
<text text-anchor="middle" x="5263.75" y="-85.8" font-family="Times,serif" font-size="14.00">Coach::EventsController</text>
</g>
<!-- CoachEventsController -->
<g id="node11" class="node"><title>CoachEventsController</title>
<ellipse fill="none" stroke="black" cx="5472.75" cy="-90" rx="93.236" ry="18"/>
<text text-anchor="middle" x="5472.75" y="-85.8" font-family="Times,serif" font-size="14.00">CoachEventsController</text>
</g>
<!-- CoachesController&#45;&gt;Coach::CourtsController -->
<g id="edge8" class="edge"><title>CoachesController&#45;&gt;Coach::CourtsController</title>
<path fill="none" stroke="black" d="M3023.93,-148.947C3013.33,-146.949 3002.23,-145.155 2991.75,-144 2277.24,-65.2096 2090.7,-172.545 1374.75,-108 1361.83,-106.835 1348.1,-105.063 1334.93,-103.095"/>
</g>
<!-- Dashboard::Coach::CoachProfileController -->
<g id="node14" class="node"><title>Dashboard::Coach::CoachProfileController</title>
<ellipse fill="none" stroke="black" cx="1546.75" cy="-90" rx="163.23" ry="18"/>
<text text-anchor="middle" x="1546.75" y="-85.8" font-family="Times,serif" font-size="14.00">Dashboard::Coach::CoachProfileController</text>
</g>
<!-- Dashboard::Coach::CoachesController -->
<g id="node15" class="node"><title>Dashboard::Coach::CoachesController</title>
<ellipse fill="none" stroke="black" cx="1875.75" cy="-90" rx="147.292" ry="18"/>
<text text-anchor="middle" x="1875.75" y="-85.8" font-family="Times,serif" font-size="14.00">Dashboard::Coach::CoachesController</text>
</g>
<!-- Dashboard::Coach::CourtsController -->
<g id="node16" class="node"><title>Dashboard::Coach::CourtsController</title>
<ellipse fill="none" stroke="black" cx="1587.75" cy="-18" rx="140.545" ry="18"/>
<text text-anchor="middle" x="1587.75" y="-13.8" font-family="Times,serif" font-size="14.00">Dashboard::Coach::CourtsController</text>
</g>
<!-- Dashboard::Coach::CoachesController&#45;&gt;Dashboard::Coach::CourtsController -->
<g id="edge15" class="edge"><title>Dashboard::Coach::CoachesController&#45;&gt;Dashboard::Coach::CourtsController</title>
<path fill="none" stroke="black" d="M1812.55,-73.6382C1764.37,-61.9268 1698.34,-45.8781 1650.31,-34.2055"/>
</g>
<!-- Dashboard::Coach::CustomersController -->
<g id="node17" class="node"><title>Dashboard::Coach::CustomersController</title>
<ellipse fill="none" stroke="black" cx="1901.75" cy="-18" rx="155.036" ry="18"/>
<text text-anchor="middle" x="1901.75" y="-13.8" font-family="Times,serif" font-size="14.00">Dashboard::Coach::CustomersController</text>
</g>
<!-- Dashboard::Coach::CoachesController&#45;&gt;Dashboard::Coach::CustomersController -->
<g id="edge16" class="edge"><title>Dashboard::Coach::CoachesController&#45;&gt;Dashboard::Coach::CustomersController</title>
<path fill="none" stroke="black" d="M1882.18,-71.6966C1886.21,-60.8463 1891.39,-46.9167 1895.4,-36.1043"/>
</g>
<!-- Dashboard::Coach::EventsController -->
<g id="node18" class="node"><title>Dashboard::Coach::EventsController</title>
<ellipse fill="none" stroke="black" cx="2401.75" cy="-18" rx="141.013" ry="18"/>
<text text-anchor="middle" x="2401.75" y="-13.8" font-family="Times,serif" font-size="14.00">Dashboard::Coach::EventsController</text>
</g>
<!-- Dashboard::Customer::DepositRequestsController -->
<g id="node19" class="node"><title>Dashboard::Customer::DepositRequestsController</title>
<ellipse fill="none" stroke="black" cx="2229.75" cy="-90" rx="188.354" ry="18"/>
<text text-anchor="middle" x="2229.75" y="-85.8" font-family="Times,serif" font-size="14.00">Dashboard::Customer::DepositRequestsController</text>
</g>
<!-- Dashboard::Customer::EventsController -->
<g id="node20" class="node"><title>Dashboard::Customer::EventsController</title>
<ellipse fill="none" stroke="black" cx="2713.75" cy="-18" rx="153.106" ry="18"/>
<text text-anchor="middle" x="2713.75" y="-13.8" font-family="Times,serif" font-size="14.00">Dashboard::Customer::EventsController</text>
</g>
<!-- Dashboard::Customer::OrdersController -->
<g id="node21" class="node"><title>Dashboard::Customer::OrdersController</title>
<ellipse fill="none" stroke="black" cx="2588.75" cy="-90" rx="153.098" ry="18"/>
<text text-anchor="middle" x="2588.75" y="-85.8" font-family="Times,serif" font-size="14.00">Dashboard::Customer::OrdersController</text>
</g>
<!-- Dashboard::EventsController -->
<g id="node22" class="node"><title>Dashboard::EventsController</title>
<ellipse fill="none" stroke="black" cx="2873.75" cy="-90" rx="114" ry="18"/>
<text text-anchor="middle" x="2873.75" y="-85.8" font-family="Times,serif" font-size="14.00">Dashboard::EventsController</text>
</g>
<!-- Dashboard::EventsController&#45;&gt;Dashboard::Coach::EventsController -->
<g id="edge17" class="edge"><title>Dashboard::EventsController&#45;&gt;Dashboard::Coach::EventsController</title>
<path fill="none" stroke="black" d="M2793.95,-77.1651C2709.7,-64.6703 2577.25,-45.0266 2489.95,-32.0801"/>
</g>
<!-- Dashboard::EventsController&#45;&gt;Dashboard::Customer::EventsController -->
<g id="edge19" class="edge"><title>Dashboard::EventsController&#45;&gt;Dashboard::Customer::EventsController</title>
<path fill="none" stroke="black" d="M2837.05,-72.9406C2811.4,-61.7194 2777.25,-46.7812 2751.4,-35.4706"/>
</g>
<!-- Dashboard::Stadium::EventsController -->
<g id="node25" class="node"><title>Dashboard::Stadium::EventsController</title>
<ellipse fill="none" stroke="black" cx="3032.75" cy="-18" rx="148.287" ry="18"/>
<text text-anchor="middle" x="3032.75" y="-13.8" font-family="Times,serif" font-size="14.00">Dashboard::Stadium::EventsController</text>
</g>
<!-- Dashboard::EventsController&#45;&gt;Dashboard::Stadium::EventsController -->
<g id="edge24" class="edge"><title>Dashboard::EventsController&#45;&gt;Dashboard::Stadium::EventsController</title>
<path fill="none" stroke="black" d="M2910.23,-72.9406C2935.72,-61.7194 2969.65,-46.7812 2995.34,-35.4706"/>
</g>
<!-- Dashboard::PicturesController -->
<g id="node23" class="node"><title>Dashboard::PicturesController</title>
<ellipse fill="none" stroke="black" cx="3123.75" cy="-90" rx="118.343" ry="18"/>
<text text-anchor="middle" x="3123.75" y="-85.8" font-family="Times,serif" font-size="14.00">Dashboard::PicturesController</text>
</g>
<!-- Dashboard::Stadium::PicturesController -->
<g id="node27" class="node"><title>Dashboard::Stadium::PicturesController</title>
<ellipse fill="none" stroke="black" cx="3351.75" cy="-18" rx="152.63" ry="18"/>
<text text-anchor="middle" x="3351.75" y="-13.8" font-family="Times,serif" font-size="14.00">Dashboard::Stadium::PicturesController</text>
</g>
<!-- Dashboard::PicturesController&#45;&gt;Dashboard::Stadium::PicturesController -->
<g id="edge26" class="edge"><title>Dashboard::PicturesController&#45;&gt;Dashboard::Stadium::PicturesController</title>
<path fill="none" stroke="black" d="M3173.79,-73.6382C3211.15,-62.1683 3262.06,-46.538 3299.86,-34.933"/>
</g>
<!-- Dashboard::Stadium::CoachesController -->
<g id="node24" class="node"><title>Dashboard::Stadium::CoachesController</title>
<ellipse fill="none" stroke="black" cx="3413.75" cy="-90" rx="154.067" ry="18"/>
<text text-anchor="middle" x="3413.75" y="-85.8" font-family="Times,serif" font-size="14.00">Dashboard::Stadium::CoachesController</text>
</g>
<!-- Dashboard::Stadium::OrdersController -->
<g id="node26" class="node"><title>Dashboard::Stadium::OrdersController</title>
<ellipse fill="none" stroke="black" cx="3733.75" cy="-90" rx="148.278" ry="18"/>
<text text-anchor="middle" x="3733.75" y="-85.8" font-family="Times,serif" font-size="14.00">Dashboard::Stadium::OrdersController</text>
</g>
<!-- Dashboard::Stadium::SpecialPricesController -->
<g id="node28" class="node"><title>Dashboard::Stadium::SpecialPricesController</title>
<ellipse fill="none" stroke="black" cx="4071.75" cy="-90" rx="171.932" ry="18"/>
<text text-anchor="middle" x="4071.75" y="-85.8" font-family="Times,serif" font-size="14.00">Dashboard::Stadium::SpecialPricesController</text>
</g>
<!-- Dashboard::Stadium::StadiumsController -->
<g id="node29" class="node"><title>Dashboard::Stadium::StadiumsController</title>
<ellipse fill="none" stroke="black" cx="4418.75" cy="-90" rx="156.991" ry="18"/>
<text text-anchor="middle" x="4418.75" y="-85.8" font-family="Times,serif" font-size="14.00">Dashboard::Stadium::StadiumsController</text>
</g>
<!-- Dashboard::Stadium::WithdrawalRequestsController -->
<g id="node30" class="node"><title>Dashboard::Stadium::WithdrawalRequestsController</title>
<ellipse fill="none" stroke="black" cx="4790.75" cy="-90" rx="197.3" ry="18"/>
<text text-anchor="middle" x="4790.75" y="-85.8" font-family="Times,serif" font-size="14.00">Dashboard::Stadium::WithdrawalRequestsController</text>
</g>
<!-- DashboardController&#45;&gt;Dashboard::Coach::CoachProfileController -->
<g id="edge13" class="edge"><title>DashboardController&#45;&gt;Dashboard::Coach::CoachProfileController</title>
<path fill="none" stroke="black" d="M3355.29,-148.966C3343.57,-146.967 3331.3,-145.167 3319.75,-144 2612.07,-72.4892 2429.76,-150.811 1719.75,-108 1699.87,-106.801 1678.74,-105.091 1658.33,-103.212"/>
</g>
<!-- DashboardController&#45;&gt;Dashboard::Coach::CoachesController -->
<g id="edge14" class="edge"><title>DashboardController&#45;&gt;Dashboard::Coach::CoachesController</title>
<path fill="none" stroke="black" d="M3355.03,-148.974C3343.39,-146.987 3331.22,-145.19 3319.75,-144 2750.59,-84.9141 2603.66,-146.831 2032.75,-108 2014.56,-106.763 1995.23,-105.021 1976.57,-103.121"/>
</g>
<!-- DashboardController&#45;&gt;Dashboard::Customer::DepositRequestsController -->
<g id="edge18" class="edge"><title>DashboardController&#45;&gt;Dashboard::Customer::DepositRequestsController</title>
<path fill="none" stroke="black" d="M3354.77,-149.043C3343.2,-147.064 3331.13,-145.252 3319.75,-144 2924.93,-100.551 2823.17,-133.082 2426.75,-108 2405.08,-106.629 2382.1,-104.898 2359.77,-103.068"/>
</g>
<!-- DashboardController&#45;&gt;Dashboard::Customer::OrdersController -->
<g id="edge20" class="edge"><title>DashboardController&#45;&gt;Dashboard::Customer::OrdersController</title>
<path fill="none" stroke="black" d="M3354.24,-149.164C3342.83,-147.2 3330.95,-145.362 3319.75,-144 3068.21,-113.401 3003.26,-129.227 2750.75,-108 2733,-106.508 2714.17,-104.72 2695.88,-102.873"/>
</g>
<!-- DashboardController&#45;&gt;Dashboard::EventsController -->
<g id="edge21" class="edge"><title>DashboardController&#45;&gt;Dashboard::EventsController</title>
<path fill="none" stroke="black" d="M3352.92,-149.376C3341.9,-147.448 3330.5,-145.569 3319.75,-144 3176.82,-123.135 3140.09,-125.889 2996.75,-108 2983.38,-106.331 2969.21,-104.464 2955.42,-102.595"/>
</g>
<!-- DashboardController&#45;&gt;Dashboard::PicturesController -->
<g id="edge22" class="edge"><title>DashboardController&#45;&gt;Dashboard::PicturesController</title>
<path fill="none" stroke="black" d="M3359.89,-147.998C3309.93,-135.938 3235.7,-118.02 3183.84,-105.503"/>
</g>
<!-- DashboardController&#45;&gt;Dashboard::Stadium::CoachesController -->
<g id="edge23" class="edge"><title>DashboardController&#45;&gt;Dashboard::Stadium::CoachesController</title>
<path fill="none" stroke="black" d="M3413.75,-143.697C3413.75,-132.846 3413.75,-118.917 3413.75,-108.104"/>
</g>
<!-- DashboardController&#45;&gt;Dashboard::Stadium::OrdersController -->
<g id="edge25" class="edge"><title>DashboardController&#45;&gt;Dashboard::Stadium::OrdersController</title>
<path fill="none" stroke="black" d="M3470.59,-148.566C3525.01,-136.662 3607.19,-118.686 3665.21,-105.995"/>
</g>
<!-- DashboardController&#45;&gt;Dashboard::Stadium::SpecialPricesController -->
<g id="edge27" class="edge"><title>DashboardController&#45;&gt;Dashboard::Stadium::SpecialPricesController</title>
<path fill="none" stroke="black" d="M3473.66,-149.254C3484.64,-147.328 3496.02,-145.481 3506.75,-144 3676.56,-120.566 3720.09,-124.015 3890.75,-108 3909.45,-106.246 3929.23,-104.388 3948.59,-102.571"/>
</g>
<!-- DashboardController&#45;&gt;Dashboard::Stadium::StadiumsController -->
<g id="edge28" class="edge"><title>DashboardController&#45;&gt;Dashboard::Stadium::StadiumsController</title>
<path fill="none" stroke="black" d="M3472.62,-149.024C3483.91,-147.073 3495.67,-145.275 3506.75,-144 3836.52,-106.072 3921.75,-132.918 4252.75,-108 4271.24,-106.608 4290.86,-104.85 4309.89,-102.995"/>
</g>
<!-- DashboardController&#45;&gt;Dashboard::Stadium::WithdrawalRequestsController -->
<g id="edge29" class="edge"><title>DashboardController&#45;&gt;Dashboard::Stadium::WithdrawalRequestsController</title>
<path fill="none" stroke="black" d="M3472.6,-148.891C3483.89,-146.952 3495.66,-145.193 3506.75,-144 3983.39,-92.7609 4106.18,-135.721 4584.75,-108 4607.59,-106.677 4631.83,-104.959 4655.36,-103.124"/>
</g>
<!-- OrdersController -->
<g id="node34" class="node"><title>OrdersController</title>
<ellipse fill="none" stroke="black" cx="5076.75" cy="-90" rx="70.5427" ry="18"/>
<text text-anchor="middle" x="5076.75" y="-85.8" font-family="Times,serif" font-size="14.00">OrdersController</text>
</g>
<!-- DashboardController&#45;&gt;OrdersController -->
<g id="edge33" class="edge"><title>DashboardController&#45;&gt;OrdersController</title>
<path fill="none" stroke="black" d="M3472.09,-148.894C3483.54,-146.928 3495.49,-145.159 3506.75,-144 4165.69,-76.2358 4338.85,-185.175 4996.75,-108 5006.77,-106.825 5017.38,-104.995 5027.49,-102.962"/>
</g>
<!-- EventsController&#45;&gt;Coach::EventsController -->
<g id="edge9" class="edge"><title>EventsController&#45;&gt;Coach::EventsController</title>
<path fill="none" stroke="black" d="M3636.02,-149.038C3646.13,-147.005 3656.74,-145.175 3666.75,-144 4324.66,-66.8248 4497.07,-168.104 5156.75,-108 5169.59,-106.831 5183.21,-105.07 5196.29,-103.118"/>
</g>
<!-- EventsController&#45;&gt;CoachEventsController -->
<g id="edge10" class="edge"><title>EventsController&#45;&gt;CoachEventsController</title>
<path fill="none" stroke="black" d="M3636.02,-149.014C3646.13,-146.983 3656.74,-145.159 3666.75,-144 4419.23,-56.8876 4616.53,-178.449 5370.75,-108 5383.09,-106.848 5396.18,-105.082 5408.73,-103.117"/>
</g>
<!-- StadiumEventsController -->
<g id="node39" class="node"><title>StadiumEventsController</title>
<ellipse fill="none" stroke="black" cx="5683.75" cy="-90" rx="100.011" ry="18"/>
<text text-anchor="middle" x="5683.75" y="-85.8" font-family="Times,serif" font-size="14.00">StadiumEventsController</text>
</g>
<!-- EventsController&#45;&gt;StadiumEventsController -->
<g id="edge38" class="edge"><title>EventsController&#45;&gt;StadiumEventsController</title>
<path fill="none" stroke="black" d="M3636.02,-148.996C3646.12,-146.967 3656.74,-145.148 3666.75,-144 4088.07,-95.7072 5152.27,-144.76 5574.75,-108 5587.92,-106.854 5601.91,-105.091 5615.32,-103.127"/>
</g>
</g>
</svg>
