<?xml version="1.0" encoding="UTF-8" standalone="no"?>
<!DOCTYPE svg PUBLIC "-//W3C//DTD SVG 1.1//EN"
 "http://www.w3.org/Graphics/SVG/1.1/DTD/svg11.dtd">
<!-- Generated by graphviz version 2.38.0 (20140413.2041)
 -->
<!-- Title: models_diagram Pages: 1 -->
<svg width="2390pt" height="605pt"
 viewBox="0.00 0.00 2389.53 605.00" xmlns="http://www.w3.org/2000/svg" xmlns:xlink="http://www.w3.org/1999/xlink">
<g id="graph0" class="graph" transform="scale(1 1) rotate(0) translate(4 601)">
<title>models_diagram</title>
<polygon fill="white" stroke="none" points="-4,4 -4,-601 2385.53,-601 2385.53,4 -4,4"/>
<!-- _diagram_info -->
<g id="node1" class="node"><title>_diagram_info</title>
<text text-anchor="start" x="480.312" y="-582.6" font-family="Times,serif" font-size="13.00">Models diagram</text>
<text text-anchor="start" x="480.312" y="-569.6" font-family="Times,serif" font-size="13.00">Date: Jul 18 2015 &#45; 22:29</text>
<text text-anchor="start" x="480.312" y="-556.6" font-family="Times,serif" font-size="13.00">Migration version: 20150718153439</text>
<text text-anchor="start" x="480.312" y="-543.6" font-family="Times,serif" font-size="13.00">Generated by RailRoady 1.3.0</text>
<text text-anchor="start" x="480.312" y="-530.6" font-family="Times,serif" font-size="13.00">http://railroady.prestonlee.com</text>
</g>
<!-- AdditionalEventItem -->
<g id="node2" class="node"><title>AdditionalEventItem</title>
<ellipse fill="none" stroke="black" cx="1073" cy="-164" rx="84.5341" ry="18"/>
<text text-anchor="middle" x="1073" y="-159.8" font-family="Times,serif" font-size="14.00">AdditionalEventItem</text>
</g>
<!-- Admin -->
<g id="node3" class="node"><title>Admin</title>
<ellipse fill="none" stroke="black" cx="669" cy="-310" rx="34.8458" ry="18"/>
<text text-anchor="middle" x="669" y="-305.8" font-family="Times,serif" font-size="14.00">Admin</text>
</g>
<!-- Event -->
<g id="node16" class="node"><title>Event</title>
<ellipse fill="none" stroke="black" cx="1112" cy="-237" rx="30.9706" ry="18"/>
<text text-anchor="middle" x="1112" y="-232.8" font-family="Times,serif" font-size="14.00">Event</text>
</g>
<!-- Admin&#45;&gt;Event -->
<g id="edge2" class="edge"><title>Admin&#45;&gt;Event</title>
<path fill="none" stroke="#aba355" d="M711.636,-302.167C797.378,-288.425 989.556,-257.624 1072.57,-244.32"/>
<polygon fill="#aba355" stroke="#aba355" points="711.449,-302.197 700.863,-299.336 706.512,-302.988 701.575,-303.779 701.575,-303.779 701.575,-303.779 706.512,-302.988 702.287,-308.222 711.449,-302.197 711.449,-302.197"/>
<polygon fill="#aba355" stroke="#aba355" points="1072.73,-244.294 1083.32,-247.155 1077.67,-243.503 1082.6,-242.711 1082.6,-242.711 1082.6,-242.711 1077.67,-243.503 1081.89,-238.268 1072.73,-244.294 1072.73,-244.294"/>
</g>
<!-- EventChange -->
<g id="node17" class="node"><title>EventChange</title>
<ellipse fill="none" stroke="black" cx="114" cy="-18" rx="57.9979" ry="18"/>
<text text-anchor="middle" x="114" y="-13.8" font-family="Times,serif" font-size="14.00">EventChange</text>
</g>
<!-- Admin&#45;&gt;EventChange -->
<g id="edge3" class="edge"><title>Admin&#45;&gt;EventChange</title>
<path fill="none" stroke="#8141d7" d="M633.022,-294.598C630.324,-293.672 627.629,-292.794 625,-292 552.226,-270.016 532.198,-271.553 458,-255 421.877,-246.942 157.763,-209.507 133,-182 99.5735,-144.869 103.026,-82.1243 108.518,-46.279"/>
<polygon fill="#8141d7" stroke="#8141d7" points="633.296,-294.697 641.17,-302.329 637.998,-296.397 642.7,-298.097 642.7,-298.097 642.7,-298.097 637.998,-296.397 644.231,-293.866 633.296,-294.697 633.296,-294.697"/>
<polygon fill="#8141d7" stroke="#8141d7" points="108.576,-45.9355 114.686,-36.8293 109.413,-41.0059 110.249,-36.0764 110.249,-36.0764 110.249,-36.0764 109.413,-41.0059 105.812,-35.3235 108.576,-45.9355 108.576,-45.9355"/>
</g>
<!-- Order -->
<g id="node20" class="node"><title>Order</title>
<ellipse fill="none" stroke="black" cx="846" cy="-91" rx="30.9619" ry="18"/>
<text text-anchor="middle" x="846" y="-86.8" font-family="Times,serif" font-size="14.00">Order</text>
</g>
<!-- Admin&#45;&gt;Order -->
<g id="edge1" class="edge"><title>Admin&#45;&gt;Order</title>
<path fill="none" stroke="#5ba171" d="M674.702,-283.77C684.707,-244.981 708.976,-170.622 756,-127 770.179,-113.847 789.854,-105.441 807.194,-100.175"/>
<ellipse fill="none" stroke="#5ba171" cx="673.638" cy="-288.05" rx="4.00001" ry="4.00001"/>
<polygon fill="#5ba171" stroke="#5ba171" points="807.44,-100.106 818.28,-101.76 812.257,-98.7653 817.074,-97.4245 817.074,-97.4245 817.074,-97.4245 812.257,-98.7653 815.867,-93.0893 807.44,-100.106 807.44,-100.106"/>
</g>
<!-- Wallet -->
<g id="node33" class="node"><title>Wallet</title>
<ellipse fill="none" stroke="black" cx="500" cy="-237" rx="32.9423" ry="18"/>
<text text-anchor="middle" x="500" y="-232.8" font-family="Times,serif" font-size="14.00">Wallet</text>
</g>
<!-- Admin&#45;&gt;Wallet -->
<g id="edge4" class="edge"><title>Admin&#45;&gt;Wallet</title>
<path fill="none" stroke="#04bf4f" d="M635.486,-294.92C605.694,-282.404 562.398,-264.214 532.818,-251.788"/>
<ellipse fill="none" stroke="#04bf4f" cx="639.276" cy="-296.513" rx="4.00002" ry="4.00002"/>
<ellipse fill="#04bf4f" stroke="#04bf4f" cx="528.925" cy="-250.152" rx="4.00002" ry="4.00002"/>
</g>
<!-- Category -->
<g id="node4" class="node"><title>Category</title>
<ellipse fill="none" stroke="black" cx="1333" cy="-560.5" rx="42.5456" ry="18"/>
<text text-anchor="middle" x="1333" y="-556.3" font-family="Times,serif" font-size="14.00">Category</text>
</g>
<!-- Stadium -->
<g id="node29" class="node"><title>Stadium</title>
<ellipse fill="none" stroke="black" cx="1333" cy="-469" rx="39.6731" ry="18"/>
<text text-anchor="middle" x="1333" y="-464.8" font-family="Times,serif" font-size="14.00">Stadium</text>
</g>
<!-- Category&#45;&gt;Stadium -->
<g id="edge5" class="edge"><title>Category&#45;&gt;Stadium</title>
<path fill="none" stroke="#7606af" d="M1333,-533.903C1333,-522.441 1333,-508.914 1333,-497.263"/>
<ellipse fill="none" stroke="#7606af" cx="1333" cy="-538.243" rx="4" ry="4"/>
<polygon fill="#7606af" stroke="#7606af" points="1333,-497.204 1337.5,-487.203 1333,-492.204 1333,-487.204 1333,-487.204 1333,-487.204 1333,-492.204 1328.5,-487.204 1333,-497.204 1333,-497.204"/>
</g>
<!-- Coach -->
<g id="node5" class="node"><title>Coach</title>
<ellipse fill="none" stroke="black" cx="1333" cy="-396" rx="32.8994" ry="18"/>
<text text-anchor="middle" x="1333" y="-391.8" font-family="Times,serif" font-size="14.00">Coach</text>
</g>
<!-- CoachProfile -->
<g id="node6" class="node"><title>CoachProfile</title>
<ellipse fill="none" stroke="black" cx="930" cy="-310" rx="56.07" ry="18"/>
<text text-anchor="middle" x="930" y="-305.8" font-family="Times,serif" font-size="14.00">CoachProfile</text>
</g>
<!-- Coach&#45;&gt;CoachProfile -->
<g id="edge14" class="edge"><title>Coach&#45;&gt;CoachProfile</title>
<path fill="none" stroke="#07942a" d="M1292.11,-395.42C1207.84,-395.603 1018.17,-392.292 963.448,-360 953.789,-354.3 946.295,-344.583 940.873,-335.299"/>
<ellipse fill="none" stroke="#07942a" cx="1296.17" cy="-395.406" rx="4" ry="4"/>
<ellipse fill="#07942a" stroke="#07942a" cx="938.86" cy="-331.554" rx="4.00002" ry="4.00002"/>
<text text-anchor="middle" x="981.276" y="-348.8" font-family="Times,serif" font-size="14.00">profile</text>
</g>
<!-- CoachesCourt -->
<g id="node8" class="node"><title>CoachesCourt</title>
<ellipse fill="none" stroke="black" cx="1426" cy="-237" rx="60.4202" ry="18"/>
<text text-anchor="middle" x="1426" y="-232.8" font-family="Times,serif" font-size="14.00">CoachesCourt</text>
</g>
<!-- Coach&#45;&gt;CoachesCourt -->
<g id="edge12" class="edge"><title>Coach&#45;&gt;CoachesCourt</title>
<path fill="none" stroke="#964b19" d="M1354.41,-374.311C1358.52,-369.802 1362.6,-364.906 1366,-360 1387.26,-329.354 1405.14,-290.056 1415.7,-264.465"/>
<ellipse fill="none" stroke="#964b19" cx="1351.6" cy="-377.279" rx="4.00002" ry="4.00002"/>
<polygon fill="#964b19" stroke="#964b19" points="1415.76,-264.319 1423.69,-256.74 1417.64,-259.685 1419.52,-255.051 1419.52,-255.051 1419.52,-255.051 1417.64,-259.685 1415.35,-253.361 1415.76,-264.319 1415.76,-264.319"/>
</g>
<!-- Court -->
<g id="node9" class="node"><title>Court</title>
<ellipse fill="none" stroke="black" cx="1593" cy="-310" rx="30.0035" ry="18"/>
<text text-anchor="middle" x="1593" y="-305.8" font-family="Times,serif" font-size="14.00">Court</text>
</g>
<!-- Coach&#45;&gt;Court -->
<g id="edge13" class="edge"><title>Coach&#45;&gt;Court</title>
<path fill="none" stroke="#b0158f" d="M1370.6,-382.853C1420.61,-366.696 1508.38,-338.338 1557.38,-322.509"/>
<polygon fill="#b0158f" stroke="#b0158f" points="1370.34,-382.936 1359.44,-381.728 1365.58,-384.473 1360.82,-386.011 1360.82,-386.011 1360.82,-386.011 1365.58,-384.473 1362.21,-390.293 1370.34,-382.936 1370.34,-382.936"/>
<polygon fill="#b0158f" stroke="#b0158f" points="1557.41,-322.499 1568.31,-323.706 1562.17,-320.961 1566.92,-319.424 1566.92,-319.424 1566.92,-319.424 1562.17,-320.961 1565.54,-315.142 1557.41,-322.499 1557.41,-322.499"/>
</g>
<!-- Coach&#45;&gt;Event -->
<g id="edge8" class="edge"><title>Coach&#45;&gt;Event</title>
<path fill="none" stroke="#1886c4" d="M1307.72,-374.075C1276.8,-348.879 1222.47,-305.853 1173,-273 1163.52,-266.704 1152.86,-260.353 1143.13,-254.822"/>
<polygon fill="#1886c4" stroke="#1886c4" points="1308.06,-374.351 1312.94,-384.167 1311.93,-377.518 1315.79,-380.685 1315.79,-380.685 1315.79,-380.685 1311.93,-377.518 1318.64,-377.203 1308.06,-374.351 1308.06,-374.351"/>
<polygon fill="#1886c4" stroke="#1886c4" points="1142.88,-254.684 1136.35,-245.872 1138.52,-252.241 1134.16,-249.798 1134.16,-249.798 1134.16,-249.798 1138.52,-252.241 1131.96,-253.724 1142.88,-254.684 1142.88,-254.684"/>
</g>
<!-- Coach&#45;&gt;Order -->
<g id="edge9" class="edge"><title>Coach&#45;&gt;Order</title>
<path fill="none" stroke="#2ad926" d="M1292.01,-394.144C1231.16,-391.136 1115.28,-378.59 1033,-328 1010.34,-314.067 905.49,-173.088 863.478,-115.905"/>
<ellipse fill="none" stroke="#2ad926" cx="1296.23" cy="-394.331" rx="4" ry="4"/>
<polygon fill="#2ad926" stroke="#2ad926" points="863.44,-115.853 861.153,-105.128 860.482,-111.821 857.525,-107.79 857.525,-107.79 857.525,-107.79 860.482,-111.821 853.896,-110.451 863.44,-115.853 863.44,-115.853"/>
</g>
<!-- Picture -->
<g id="node23" class="node"><title>Picture</title>
<ellipse fill="none" stroke="black" cx="1925" cy="-91" rx="35.3129" ry="18"/>
<text text-anchor="middle" x="1925" y="-86.8" font-family="Times,serif" font-size="14.00">Picture</text>
</g>
<!-- Coach&#45;&gt;Picture -->
<g id="edge6" class="edge"><title>Coach&#45;&gt;Picture</title>
<path fill="none" stroke="#d020c4" d="M1373.93,-393.764C1441.58,-390.316 1579.63,-377.275 1684,-328 1784.17,-280.708 1812.95,-265.272 1886,-182 1904.7,-160.68 1910.28,-154.642 1920,-128 1921.01,-125.221 1921.82,-122.253 1922.47,-119.259"/>
<ellipse fill="none" stroke="#d020c4" cx="1369.64" cy="-393.966" rx="4" ry="4"/>
<polygon fill="#d020c4" stroke="#d020c4" points="1922.5,-119.08 1928.54,-109.93 1923.3,-114.144 1924.1,-109.209 1924.1,-109.209 1924.1,-109.209 1923.3,-114.144 1919.66,-108.488 1922.5,-119.08 1922.5,-119.08"/>
</g>
<!-- ProductService -->
<g id="node25" class="node"><title>ProductService</title>
<ellipse fill="none" stroke="black" cx="1376" cy="-91" rx="64.27" ry="18"/>
<text text-anchor="middle" x="1376" y="-86.8" font-family="Times,serif" font-size="14.00">ProductService</text>
</g>
<!-- Coach&#45;&gt;ProductService -->
<g id="edge10" class="edge"><title>Coach&#45;&gt;ProductService</title>
<path fill="none" stroke="#b35bb5" d="M1327.92,-369.974C1321.81,-335.597 1313.57,-271.996 1324,-219 1331.19,-182.472 1348.98,-143.22 1361.74,-118.179"/>
<ellipse fill="none" stroke="#b35bb5" cx="1328.69" cy="-374.127" rx="4.00001" ry="4.00001"/>
<polygon fill="#b35bb5" stroke="#b35bb5" points="1361.91,-117.866 1370.52,-111.076 1364.22,-113.432 1366.53,-108.997 1366.53,-108.997 1366.53,-108.997 1364.22,-113.432 1362.54,-106.918 1361.91,-117.866 1361.91,-117.866"/>
</g>
<!-- Review -->
<g id="node26" class="node"><title>Review</title>
<ellipse fill="none" stroke="black" cx="1817" cy="-91" rx="37.2421" ry="18"/>
<text text-anchor="middle" x="1817" y="-86.8" font-family="Times,serif" font-size="14.00">Review</text>
</g>
<!-- Coach&#45;&gt;Review -->
<g id="edge7" class="edge"><title>Coach&#45;&gt;Review</title>
<path fill="none" stroke="#15cab9" d="M1373.34,-392.457C1455.01,-385.212 1641.37,-357.729 1750,-255 1796.22,-211.292 1806.53,-190.903 1816,-128 1816.41,-125.254 1816.71,-122.378 1816.93,-119.499"/>
<ellipse fill="none" stroke="#15cab9" cx="1369.29" cy="-392.799" rx="4" ry="4"/>
<polygon fill="#15cab9" stroke="#15cab9" points="1816.94,-119.279 1821.87,-109.483 1817.15,-114.283 1817.37,-109.288 1817.37,-109.288 1817.37,-109.288 1817.15,-114.283 1812.87,-109.093 1816.94,-119.279 1816.94,-119.279"/>
</g>
<!-- Service -->
<g id="node27" class="node"><title>Service</title>
<ellipse fill="none" stroke="black" cx="1676" cy="-91" rx="36.7489" ry="18"/>
<text text-anchor="middle" x="1676" y="-86.8" font-family="Times,serif" font-size="14.00">Service</text>
</g>
<!-- Coach&#45;&gt;Service -->
<g id="edge11" class="edge"><title>Coach&#45;&gt;Service</title>
<path fill="none" stroke="#53e1bd" d="M1336.9,-367.87C1337.27,-365.211 1337.65,-362.554 1338,-360 1346.69,-297.367 1312.34,-263.763 1357,-219 1399.77,-176.129 1577.16,-216.405 1627,-182 1648.64,-167.06 1661.63,-139.368 1668.74,-118.631"/>
<polygon fill="#53e1bd" stroke="#53e1bd" points="1336.88,-368.014 1331.01,-377.28 1336.17,-372.964 1335.47,-377.914 1335.47,-377.914 1335.47,-377.914 1336.17,-372.964 1339.92,-378.548 1336.88,-368.014 1336.88,-368.014"/>
<polygon fill="#53e1bd" stroke="#53e1bd" points="1668.74,-118.626 1676.06,-110.459 1670.25,-113.861 1671.77,-109.096 1671.77,-109.096 1671.77,-109.096 1670.25,-113.861 1667.48,-107.732 1668.74,-118.626 1668.74,-118.626"/>
</g>
<!-- CoachUser -->
<g id="node7" class="node"><title>CoachUser</title>
<ellipse fill="none" stroke="black" cx="789" cy="-469" rx="49.2946" ry="18"/>
<text text-anchor="middle" x="789" y="-464.8" font-family="Times,serif" font-size="14.00">CoachUser</text>
</g>
<!-- CoachUser&#45;&gt;Coach -->
<g id="edge19" class="edge"><title>CoachUser&#45;&gt;Coach</title>
<path fill="none" stroke="#4a1066" d="M843.091,-460.94C952.509,-446.66 1197.83,-414.641 1293.62,-402.139"/>
<ellipse fill="none" stroke="#4a1066" cx="838.879" cy="-461.49" rx="4.00001" ry="4.00001"/>
<ellipse fill="#4a1066" stroke="#4a1066" cx="1297.64" cy="-401.615" rx="4.00001" ry="4.00001"/>
</g>
<!-- CoachUser&#45;&gt;CoachProfile -->
<g id="edge21" class="edge"><title>CoachUser&#45;&gt;CoachProfile</title>
<path fill="none" stroke="#246f77" d="M810.198,-445.727C814.144,-441.521 818.215,-437.142 822,-433 853.177,-398.876 888.553,-358.611 910.067,-333.946"/>
<ellipse fill="none" stroke="#246f77" cx="807.296" cy="-448.807" rx="4.00002" ry="4.00002"/>
<ellipse fill="#246f77" stroke="#246f77" cx="912.862" cy="-330.739" rx="4.00002" ry="4.00002"/>
</g>
<!-- CoachUser&#45;&gt;Event -->
<g id="edge16" class="edge"><title>CoachUser&#45;&gt;Event</title>
<path fill="none" stroke="#ee6e4e" d="M792.885,-440.794C799.96,-401.688 818.747,-330.112 865,-292 896.143,-266.339 1009.96,-249.683 1071.63,-242.334"/>
<polygon fill="#ee6e4e" stroke="#ee6e4e" points="792.842,-441.046 786.749,-450.163 792.014,-445.977 791.186,-450.908 791.186,-450.908 791.186,-450.908 792.014,-445.977 795.624,-451.653 792.842,-441.046 792.842,-441.046"/>
<polygon fill="#ee6e4e" stroke="#ee6e4e" points="1071.86,-242.308 1082.31,-245.622 1076.82,-241.73 1081.79,-241.152 1081.79,-241.152 1081.79,-241.152 1076.82,-241.73 1081.27,-236.682 1071.86,-242.308 1071.86,-242.308"/>
</g>
<!-- CoachUser&#45;&gt;EventChange -->
<g id="edge17" class="edge"><title>CoachUser&#45;&gt;EventChange</title>
<path fill="none" stroke="#ac26a9" d="M731.358,-462.888C555.542,-445.724 38,-382.893 38,-238 38,-238 38,-238 38,-90 38,-67.8104 55.5134,-50.5634 73.7259,-38.6271"/>
<polygon fill="#ac26a9" stroke="#ac26a9" points="731.498,-462.901 741.021,-468.339 736.475,-463.38 741.452,-463.86 741.452,-463.86 741.452,-463.86 736.475,-463.38 741.883,-459.38 731.498,-462.901 731.498,-462.901"/>
<polygon fill="#ac26a9" stroke="#ac26a9" points="74.1071,-38.3952 84.9889,-37.0396 78.3781,-35.7954 82.6491,-33.1957 82.6491,-33.1957 82.6491,-33.1957 78.3781,-35.7954 80.3094,-29.3518 74.1071,-38.3952 74.1071,-38.3952"/>
</g>
<!-- CoachUser&#45;&gt;Order -->
<g id="edge15" class="edge"><title>CoachUser&#45;&gt;Order</title>
<path fill="none" stroke="#3f5452" d="M789.557,-442.647C789.679,-439.071 789.825,-435.442 790,-432 791.223,-407.965 791.308,-401.915 794,-378 806.621,-265.881 802.408,-235.877 832,-127 832.815,-124.002 833.809,-120.913 834.887,-117.869"/>
<ellipse fill="none" stroke="#3f5452" cx="789.435" cy="-446.783" rx="4" ry="4"/>
<polygon fill="#3f5452" stroke="#3f5452" points="834.914,-117.8 842.706,-110.084 836.71,-113.133 838.506,-108.467 838.506,-108.467 838.506,-108.467 836.71,-113.133 834.307,-106.85 834.914,-117.8 834.914,-117.8"/>
</g>
<!-- Product -->
<g id="node24" class="node"><title>Product</title>
<ellipse fill="none" stroke="black" cx="1580" cy="-164" rx="37.7352" ry="18"/>
<text text-anchor="middle" x="1580" y="-159.8" font-family="Times,serif" font-size="14.00">Product</text>
</g>
<!-- CoachUser&#45;&gt;Product -->
<g id="edge20" class="edge"><title>CoachUser&#45;&gt;Product</title>
<path fill="none" stroke="#4e75a8" d="M827.322,-451.498C886.953,-425.713 1005.45,-374.044 1105,-328 1206.21,-281.186 1226.52,-257.994 1331,-219 1361.2,-207.728 1369.61,-207.32 1401,-200 1447.3,-189.204 1500.86,-179.033 1537.24,-172.466"/>
<ellipse fill="none" stroke="#4e75a8" cx="823.325" cy="-453.225" rx="4.00002" ry="4.00002"/>
<ellipse fill="#4e75a8" stroke="#4e75a8" cx="1541.26" cy="-171.746" rx="4.00001" ry="4.00001"/>
</g>
<!-- CoachUser&#45;&gt;Wallet -->
<g id="edge18" class="edge"><title>CoachUser&#45;&gt;Wallet</title>
<path fill="none" stroke="#9d00ef" d="M765.624,-446.599C742.706,-426.559 706.054,-396.937 670,-378 607.414,-345.127 566.12,-380.701 519,-328 503.26,-310.396 499.364,-283.099 498.882,-263.182"/>
<ellipse fill="none" stroke="#9d00ef" cx="768.714" cy="-449.332" rx="4.00002" ry="4.00002"/>
<ellipse fill="#9d00ef" stroke="#9d00ef" cx="498.87" cy="-259.147" rx="4" ry="4"/>
</g>
<!-- AdditionalOrderItem -->
<g id="node37" class="node"><title>AdditionalOrderItem</title>
<ellipse fill="none" stroke="black" cx="576" cy="-396" rx="84.5255" ry="18"/>
<text text-anchor="middle" x="576" y="-391.8" font-family="Times,serif" font-size="14.00">AdditionalOrderItem</text>
</g>
<!-- CoachUser&#45;&gt;AdditionalOrderItem -->
<g id="edge22" class="edge"><title>CoachUser&#45;&gt;AdditionalOrderItem</title>
<path fill="none" stroke="#bb50ae" d="M743.798,-454.7C722.798,-448.373 697.542,-440.553 675,-433 658.16,-427.357 639.851,-420.815 623.61,-414.868"/>
<ellipse fill="none" stroke="#bb50ae" cx="747.793" cy="-455.898" rx="4.00001" ry="4.00001"/>
<ellipse fill="#bb50ae" stroke="#bb50ae" cx="619.573" cy="-413.384" rx="4.00001" ry="4.00001"/>
</g>
<!-- Court&#45;&gt;CoachesCourt -->
<g id="edge30" class="edge"><title>Court&#45;&gt;CoachesCourt</title>
<path fill="none" stroke="#eddc7a" d="M1559.62,-297.289C1541.77,-290.814 1519.51,-282.397 1500,-274 1488.21,-268.926 1475.58,-262.98 1464.15,-257.398"/>
<ellipse fill="none" stroke="#eddc7a" cx="1563.72" cy="-298.765" rx="4.00001" ry="4.00001"/>
<polygon fill="#eddc7a" stroke="#eddc7a" points="1463.85,-257.248 1456.87,-248.787 1459.37,-255.035 1454.88,-252.822 1454.88,-252.822 1454.88,-252.822 1459.37,-255.035 1452.89,-256.858 1463.85,-257.248 1463.85,-257.248"/>
</g>
<!-- Court&#45;&gt;Event -->
<g id="edge25" class="edge"><title>Court&#45;&gt;Event</title>
<path fill="none" stroke="#c77fd4" d="M1554.09,-303.257C1464.16,-289.982 1242.62,-257.281 1151.81,-243.877"/>
<polygon fill="#c77fd4" stroke="#c77fd4" points="1554.1,-303.258 1563.34,-309.17 1559.05,-303.988 1563.99,-304.719 1563.99,-304.719 1563.99,-304.719 1559.05,-303.988 1564.65,-300.267 1554.1,-303.258 1554.1,-303.258"/>
<polygon fill="#c77fd4" stroke="#c77fd4" points="1151.55,-243.838 1142.31,-237.926 1146.6,-243.108 1141.66,-242.377 1141.66,-242.377 1141.66,-242.377 1146.6,-243.108 1141,-246.829 1151.55,-243.838 1151.55,-243.838"/>
</g>
<!-- Court&#45;&gt;Order -->
<g id="edge26" class="edge"><title>Court&#45;&gt;Order</title>
<path fill="none" stroke="#d22025" d="M1568.8,-290.193C1556.27,-280.139 1540.94,-267.321 1528,-255 1512.28,-240.031 1513.79,-229.859 1495,-219 1389.23,-157.887 1010.87,-110.621 886.174,-96.4085"/>
<ellipse fill="none" stroke="#d22025" cx="1571.94" cy="-292.69" rx="4.00002" ry="4.00002"/>
<polygon fill="#d22025" stroke="#d22025" points="885.868,-96.374 876.436,-90.779 880.899,-95.8123 875.931,-95.2505 875.931,-95.2505 875.931,-95.2505 880.899,-95.8123 875.425,-99.722 885.868,-96.374 885.868,-96.374"/>
</g>
<!-- Court&#45;&gt;Picture -->
<g id="edge23" class="edge"><title>Court&#45;&gt;Picture</title>
<path fill="none" stroke="#786926" d="M1628.89,-300.612C1680.29,-287.087 1775.51,-256.225 1838,-201 1866.64,-175.693 1893.03,-140.157 1909.07,-116.626"/>
<ellipse fill="none" stroke="#786926" cx="1624.91" cy="-301.638" rx="4.00001" ry="4.00001"/>
<polygon fill="#786926" stroke="#786926" points="1909.12,-116.548 1918.42,-110.748 1911.9,-112.395 1914.69,-108.242 1914.69,-108.242 1914.69,-108.242 1911.9,-112.395 1910.95,-105.736 1909.12,-116.548 1909.12,-116.548"/>
</g>
<!-- Court&#45;&gt;ProductService -->
<g id="edge27" class="edge"><title>Court&#45;&gt;ProductService</title>
<path fill="none" stroke="#83008a" d="M1578.68,-285.974C1566.38,-267.04 1547.57,-240.006 1528,-219 1489.8,-178.007 1438.65,-137.748 1406.51,-113.895"/>
<ellipse fill="none" stroke="#83008a" cx="1580.9" cy="-289.439" rx="4.00002" ry="4.00002"/>
<polygon fill="#83008a" stroke="#83008a" points="1406.43,-113.833 1401.04,-104.28 1402.4,-110.869 1398.37,-107.905 1398.37,-107.905 1398.37,-107.905 1402.4,-110.869 1395.71,-111.529 1406.43,-113.833 1406.43,-113.833"/>
</g>
<!-- Court&#45;&gt;Review -->
<g id="edge24" class="edge"><title>Court&#45;&gt;Review</title>
<path fill="none" stroke="#83b65f" d="M1628.75,-300.202C1648.74,-294.417 1673.65,-285.731 1694,-274 1755.04,-238.807 1792.04,-159.609 1807.91,-118.259"/>
<ellipse fill="none" stroke="#83b65f" cx="1624.64" cy="-301.351" rx="4.00001" ry="4.00001"/>
<polygon fill="#83b65f" stroke="#83b65f" points="1807.92,-118.223 1815.62,-110.415 1809.66,-113.535 1811.4,-108.848 1811.4,-108.848 1811.4,-108.848 1809.66,-113.535 1807.19,-107.281 1807.92,-118.223 1807.92,-118.223"/>
</g>
<!-- Court&#45;&gt;Service -->
<g id="edge28" class="edge"><title>Court&#45;&gt;Service</title>
<path fill="none" stroke="#3a4d31" d="M1630.86,-300.051C1654.34,-292.333 1682.67,-278.581 1697,-255 1722.89,-212.387 1703.65,-151.998 1688.83,-117.958"/>
<polygon fill="#3a4d31" stroke="#3a4d31" points="1630.71,-300.095 1619.84,-298.695 1625.93,-301.548 1621.15,-303.001 1621.15,-303.001 1621.15,-303.001 1625.93,-301.548 1622.45,-307.307 1630.71,-300.095 1630.71,-300.095"/>
<polygon fill="#3a4d31" stroke="#3a4d31" points="1688.75,-117.794 1688.71,-106.828 1686.68,-113.242 1684.61,-108.69 1684.61,-108.69 1684.61,-108.69 1686.68,-113.242 1680.52,-110.552 1688.75,-117.794 1688.75,-117.794"/>
</g>
<!-- SpecialPrice -->
<g id="node28" class="node"><title>SpecialPrice</title>
<ellipse fill="none" stroke="black" cx="1634" cy="-237" rx="54.1144" ry="18"/>
<text text-anchor="middle" x="1634" y="-232.8" font-family="Times,serif" font-size="14.00">SpecialPrice</text>
</g>
<!-- Court&#45;&gt;SpecialPrice -->
<g id="edge29" class="edge"><title>Court&#45;&gt;SpecialPrice</title>
<path fill="none" stroke="#f005a6" d="M1606.55,-285.543C1610.62,-278.494 1615.1,-270.726 1619.25,-263.548"/>
<ellipse fill="none" stroke="#f005a6" cx="1604.51" cy="-289.069" rx="4.00002" ry="4.00002"/>
<polygon fill="#f005a6" stroke="#f005a6" points="1619.26,-263.531 1628.15,-257.121 1621.76,-259.201 1624.26,-254.871 1624.26,-254.871 1624.26,-254.871 1621.76,-259.201 1620.36,-252.621 1619.26,-263.531 1619.26,-263.531"/>
</g>
<!-- Customer -->
<g id="node10" class="node"><title>Customer</title>
<ellipse fill="none" stroke="black" cx="572" cy="-310" rx="44.4923" ry="18"/>
<text text-anchor="middle" x="572" y="-305.8" font-family="Times,serif" font-size="14.00">Customer</text>
</g>
<!-- Customer&#45;&gt;Event -->
<g id="edge32" class="edge"><title>Customer&#45;&gt;Event</title>
<path fill="none" stroke="#74a1eb" d="M613.958,-294.701C617.668,-293.693 621.385,-292.772 625,-292 788.147,-257.157 987.13,-244.008 1071.3,-239.762"/>
<polygon fill="#74a1eb" stroke="#74a1eb" points="613.838,-294.736 602.979,-293.209 609.037,-296.133 604.236,-297.53 604.236,-297.53 604.236,-297.53 609.037,-296.133 605.494,-301.851 613.838,-294.736 613.838,-294.736"/>
<polygon fill="#74a1eb" stroke="#74a1eb" points="1071.47,-239.754 1081.68,-243.76 1076.46,-239.51 1081.46,-239.266 1081.46,-239.266 1081.46,-239.266 1076.46,-239.51 1081.24,-234.771 1071.47,-239.754 1071.47,-239.754"/>
</g>
<!-- Customer&#45;&gt;EventChange -->
<g id="edge33" class="edge"><title>Customer&#45;&gt;EventChange</title>
<path fill="none" stroke="#07c942" d="M519.412,-303.261C406.653,-289.708 147.944,-251.521 100,-182 71.8218,-141.14 88.637,-80.1112 102.149,-45.4879"/>
<polygon fill="#07c942" stroke="#07c942" points="519.604,-303.283 529.006,-308.927 524.57,-303.871 529.535,-304.458 529.535,-304.458 529.535,-304.458 524.57,-303.871 530.064,-299.989 519.604,-303.283 519.604,-303.283"/>
<polygon fill="#07c942" stroke="#07c942" points="102.223,-45.3075 110.173,-37.7544 104.115,-40.6794 106.008,-36.0513 106.008,-36.0513 106.008,-36.0513 104.115,-40.6794 101.842,-34.3482 102.223,-45.3075 102.223,-45.3075"/>
</g>
<!-- Customer&#45;&gt;Order -->
<g id="edge31" class="edge"><title>Customer&#45;&gt;Order</title>
<path fill="none" stroke="#f9a932" d="M590.426,-286.324C624.838,-244.135 696.695,-156.86 711,-146 740.136,-123.882 779.545,-109.501 808.26,-101.185"/>
<ellipse fill="none" stroke="#f9a932" cx="587.765" cy="-289.588" rx="4.00002" ry="4.00002"/>
<polygon fill="#f9a932" stroke="#f9a932" points="808.302,-101.173 819.142,-102.829 813.119,-99.8336 817.936,-98.4939 817.936,-98.4939 817.936,-98.4939 813.119,-99.8336 816.731,-94.1584 808.302,-101.173 808.302,-101.173"/>
</g>
<!-- Customer&#45;&gt;Wallet -->
<g id="edge34" class="edge"><title>Customer&#45;&gt;Wallet</title>
<path fill="none" stroke="#a371d5" d="M549.703,-287.013C540.627,-278.063 530.185,-267.766 521.222,-258.928"/>
<ellipse fill="none" stroke="#a371d5" cx="552.814" cy="-290.08" rx="4.00002" ry="4.00002"/>
<ellipse fill="#a371d5" stroke="#a371d5" cx="518.137" cy="-255.885" rx="4.00002" ry="4.00002"/>
</g>
<!-- Deposit -->
<g id="node11" class="node"><title>Deposit</title>
<ellipse fill="none" stroke="black" cx="330" cy="-164" rx="37.7352" ry="18"/>
<text text-anchor="middle" x="330" y="-159.8" font-family="Times,serif" font-size="14.00">Deposit</text>
</g>
<!-- DepositRequest -->
<g id="node12" class="node"><title>DepositRequest</title>
<ellipse fill="none" stroke="black" cx="208" cy="-164" rx="66.2167" ry="18"/>
<text text-anchor="middle" x="208" y="-159.8" font-family="Times,serif" font-size="14.00">DepositRequest</text>
</g>
<!-- DepositResponse -->
<g id="node14" class="node"><title>DepositResponse</title>
<ellipse fill="none" stroke="black" cx="214" cy="-91" rx="71.529" ry="18"/>
<text text-anchor="middle" x="214" y="-86.8" font-family="Times,serif" font-size="14.00">DepositResponse</text>
</g>
<!-- DepositRequest&#45;&gt;DepositResponse -->
<g id="edge35" class="edge"><title>DepositRequest&#45;&gt;DepositResponse</title>
<path fill="none" stroke="#1783da" d="M210.13,-137.791C210.634,-131.832 211.173,-125.45 211.685,-119.399"/>
<ellipse fill="none" stroke="#1783da" cx="209.789" cy="-141.827" rx="4" ry="4"/>
<polygon fill="#1783da" stroke="#1783da" points="211.719,-118.993 217.045,-109.408 212.14,-114.011 212.561,-109.029 212.561,-109.029 212.561,-109.029 212.14,-114.011 208.077,-108.65 211.719,-118.993 211.719,-118.993"/>
</g>
<!-- DepositRequestData -->
<g id="node13" class="node"><title>DepositRequestData</title>
<polygon fill="none" stroke="black" points="1524.58,-578.5 1393.42,-578.5 1393.42,-542.5 1524.58,-542.5 1524.58,-578.5"/>
<text text-anchor="middle" x="1459" y="-556.3" font-family="Times,serif" font-size="14.00">DepositRequestData</text>
</g>
<!-- DepositResponseData -->
<g id="node15" class="node"><title>DepositResponseData</title>
<polygon fill="none" stroke="black" points="1681.64,-578.5 1542.36,-578.5 1542.36,-542.5 1681.64,-542.5 1681.64,-578.5"/>
<text text-anchor="middle" x="1612" y="-556.3" font-family="Times,serif" font-size="14.00">DepositResponseData</text>
</g>
<!-- Event&#45;&gt;AdditionalEventItem -->
<g id="edge39" class="edge"><title>Event&#45;&gt;AdditionalEventItem</title>
<path fill="none" stroke="#cfd235" d="M1099.02,-212.361C1095.31,-205.623 1091.26,-198.24 1087.47,-191.35"/>
<ellipse fill="none" stroke="#cfd235" cx="1101.03" cy="-216.027" rx="4.00002" ry="4.00002"/>
<polygon fill="#cfd235" stroke="#cfd235" points="1087.35,-191.133 1086.48,-180.202 1084.95,-186.751 1082.54,-182.369 1082.54,-182.369 1082.54,-182.369 1084.95,-186.751 1078.6,-184.535 1087.35,-191.133 1087.35,-191.133"/>
</g>
<!-- Event&#45;&gt;EventChange -->
<g id="edge38" class="edge"><title>Event&#45;&gt;EventChange</title>
<path fill="none" stroke="#39deed" d="M1136.89,-217.367C1158.9,-198.607 1184.95,-169.203 1167,-146 1088.06,-43.9306 1013.34,-93.8124 886,-73 628.51,-30.9176 317.446,-21.6069 182.248,-19.5641"/>
<ellipse fill="none" stroke="#39deed" cx="1133.62" cy="-220.053" rx="4.00002" ry="4.00002"/>
<polygon fill="#39deed" stroke="#39deed" points="182.042,-19.5613 172.107,-14.9193 177.043,-19.49 172.043,-19.4188 172.043,-19.4188 172.043,-19.4188 177.043,-19.49 171.979,-23.9183 182.042,-19.5613 182.042,-19.5613"/>
</g>
<!-- Event&#45;&gt;Product -->
<g id="edge36" class="edge"><title>Event&#45;&gt;Product</title>
<path fill="none" stroke="#d5a001" d="M1151.68,-229.981C1238.11,-216.868 1442.98,-185.787 1534.49,-171.905"/>
<polygon fill="#d5a001" stroke="#d5a001" points="1151.52,-230.005 1140.96,-227.056 1146.57,-230.755 1141.63,-231.505 1141.63,-231.505 1141.63,-231.505 1146.57,-230.755 1142.31,-235.954 1151.52,-230.005 1151.52,-230.005"/>
<polygon fill="#d5a001" stroke="#d5a001" points="1534.66,-171.879 1545.22,-174.828 1539.6,-171.129 1544.55,-170.379 1544.55,-170.379 1544.55,-170.379 1539.6,-171.129 1543.87,-165.93 1534.66,-171.879 1534.66,-171.879"/>
</g>
<!-- Event&#45;&gt;ProductService -->
<g id="edge37" class="edge"><title>Event&#45;&gt;ProductService</title>
<path fill="none" stroke="#43858c" d="M1147.64,-224.442C1153.44,-222.599 1159.38,-220.73 1165,-219 1192.02,-210.683 1200.76,-213.722 1226,-201 1274.74,-176.436 1279.57,-158.694 1324,-127 1330.21,-122.569 1336.92,-117.939 1343.39,-113.552"/>
<polygon fill="#43858c" stroke="#43858c" points="1147.63,-224.444 1136.74,-223.205 1142.87,-225.967 1138.11,-227.491 1138.11,-227.491 1138.11,-227.491 1142.87,-225.967 1139.48,-231.777 1147.63,-224.444 1147.63,-224.444"/>
<polygon fill="#43858c" stroke="#43858c" points="1343.7,-113.344 1354.51,-111.494 1347.85,-110.553 1352,-107.761 1352,-107.761 1352,-107.761 1347.85,-110.553 1349.48,-104.028 1343.7,-113.344 1343.7,-113.344"/>
</g>
<!-- EventObserver -->
<g id="node18" class="node"><title>EventObserver</title>
<polygon fill="none" stroke="black" points="1799.97,-578.5 1700.03,-578.5 1700.03,-542.5 1799.97,-542.5 1799.97,-578.5"/>
<text text-anchor="middle" x="1750" y="-556.3" font-family="Times,serif" font-size="14.00">EventObserver</text>
</g>
<!-- Option -->
<g id="node19" class="node"><title>Option</title>
<ellipse fill="none" stroke="black" cx="1853" cy="-560.5" rx="34.8458" ry="18"/>
<text text-anchor="middle" x="1853" y="-556.3" font-family="Times,serif" font-size="14.00">Option</text>
</g>
<!-- Order&#45;&gt;Event -->
<g id="edge40" class="edge"><title>Order&#45;&gt;Event</title>
<path fill="none" stroke="#e9d09d" d="M881.685,-101.025C899.181,-106.607 919.896,-115.034 936,-127 960.905,-145.507 954.232,-163.31 979,-182 1007.61,-203.592 1046.06,-217.968 1074.26,-226.42"/>
<ellipse fill="none" stroke="#e9d09d" cx="877.728" cy="-99.8216" rx="4.00001" ry="4.00001"/>
<polygon fill="#e9d09d" stroke="#e9d09d" points="1074.53,-226.5 1082.9,-233.592 1079.34,-227.884 1084.14,-229.268 1084.14,-229.268 1084.14,-229.268 1079.34,-227.884 1085.39,-224.944 1074.53,-226.5 1074.53,-226.5"/>
</g>
<!-- Order&#45;&gt;EventChange -->
<g id="edge41" class="edge"><title>Order&#45;&gt;EventChange</title>
<path fill="none" stroke="#ed06bb" d="M807.64,-86.2793C688.995,-74.7714 327.065,-39.6662 178.591,-25.265"/>
<ellipse fill="none" stroke="#ed06bb" cx="811.959" cy="-86.6981" rx="4" ry="4"/>
<polygon fill="#ed06bb" stroke="#ed06bb" points="178.23,-25.23 168.711,-19.7855 173.253,-24.7472 168.276,-24.2645 168.276,-24.2645 168.276,-24.2645 173.253,-24.7472 167.842,-28.7435 178.23,-25.23 178.23,-25.23"/>
</g>
<!-- OrderItem -->
<g id="node21" class="node"><title>OrderItem</title>
<polygon fill="none" stroke="black" points="1980.3,-578.5 1905.7,-578.5 1905.7,-542.5 1980.3,-542.5 1980.3,-578.5"/>
<text text-anchor="middle" x="1943" y="-556.3" font-family="Times,serif" font-size="14.00">OrderItem</text>
</g>
<!-- OrderObserver -->
<g id="node22" class="node"><title>OrderObserver</title>
<polygon fill="none" stroke="black" points="2097.96,-578.5 1998.04,-578.5 1998.04,-542.5 2097.96,-542.5 2097.96,-578.5"/>
<text text-anchor="middle" x="2048" y="-556.3" font-family="Times,serif" font-size="14.00">OrderObserver</text>
</g>
<!-- Product&#45;&gt;Order -->
<g id="edge44" class="edge"><title>Product&#45;&gt;Order</title>
<path fill="none" stroke="#857279" d="M1535.14,-158.661C1402.43,-145.824 1013.11,-108.164 886.375,-95.9055"/>
<ellipse fill="none" stroke="#857279" cx="1539.37" cy="-159.07" rx="4" ry="4"/>
<polygon fill="#857279" stroke="#857279" points="886.275,-95.8959 876.755,-90.4539 881.298,-95.4144 876.321,-94.933 876.321,-94.933 876.321,-94.933 881.298,-95.4144 875.888,-99.4121 886.275,-95.8959 886.275,-95.8959"/>
</g>
<!-- Product&#45;&gt;Picture -->
<g id="edge42" class="edge"><title>Product&#45;&gt;Picture</title>
<path fill="none" stroke="#0b0ee3" d="M1623.26,-155.84C1678.97,-146.371 1778.65,-128.578 1863,-109 1870.25,-107.317 1877.93,-105.357 1885.32,-103.379"/>
<ellipse fill="none" stroke="#0b0ee3" cx="1618.98" cy="-156.565" rx="4.00001" ry="4.00001"/>
<polygon fill="#0b0ee3" stroke="#0b0ee3" points="1885.52,-103.327 1896.35,-105.036 1890.34,-102.011 1895.16,-100.695 1895.16,-100.695 1895.16,-100.695 1890.34,-102.011 1893.98,-96.3533 1885.52,-103.327 1885.52,-103.327"/>
</g>
<!-- Product&#45;&gt;ProductService -->
<g id="edge45" class="edge"><title>Product&#45;&gt;ProductService</title>
<path fill="none" stroke="#8d9916" d="M1555.16,-142.96C1546.91,-137.1 1537.42,-131.159 1528,-127 1501.09,-115.112 1469.64,-107.01 1442.35,-101.622"/>
<ellipse fill="none" stroke="#8d9916" cx="1558.55" cy="-145.452" rx="4.00002" ry="4.00002"/>
<polygon fill="#8d9916" stroke="#8d9916" points="1442.33,-101.618 1433.34,-95.3363 1437.41,-100.688 1432.5,-99.7578 1432.5,-99.7578 1432.5,-99.7578 1437.41,-100.688 1431.66,-104.179 1442.33,-101.618 1442.33,-101.618"/>
</g>
<!-- Product&#45;&gt;Review -->
<g id="edge43" class="edge"><title>Product&#45;&gt;Review</title>
<path fill="none" stroke="#0d0408" d="M1618.77,-151.385C1662.12,-138.399 1732.02,-117.459 1776.18,-104.228"/>
<ellipse fill="none" stroke="#0d0408" cx="1614.82" cy="-152.57" rx="4.00001" ry="4.00001"/>
<polygon fill="#0d0408" stroke="#0d0408" points="1776.43,-104.154 1787.3,-105.595 1781.22,-102.719 1786.01,-101.284 1786.01,-101.284 1786.01,-101.284 1781.22,-102.719 1784.72,-96.9736 1776.43,-104.154 1776.43,-104.154"/>
</g>
<!-- Product&#45;&gt;Service -->
<g id="edge46" class="edge"><title>Product&#45;&gt;Service</title>
<path fill="none" stroke="#e97f9b" d="M1608.12,-142.204C1620.74,-132.871 1635.58,-121.892 1648.17,-112.585"/>
<polygon fill="#e97f9b" stroke="#e97f9b" points="1607.93,-142.342 1597.22,-144.671 1603.91,-145.316 1599.89,-148.289 1599.89,-148.289 1599.89,-148.289 1603.91,-145.316 1602.57,-151.907 1607.93,-142.342 1607.93,-142.342"/>
<polygon fill="#e97f9b" stroke="#e97f9b" points="1648.42,-112.396 1659.14,-110.067 1652.44,-109.423 1656.46,-106.449 1656.46,-106.449 1656.46,-106.449 1652.44,-109.423 1653.79,-102.831 1648.42,-112.396 1648.42,-112.396"/>
</g>
<!-- Stadium&#45;&gt;Coach -->
<g id="edge54" class="edge"><title>Stadium&#45;&gt;Coach</title>
<path fill="none" stroke="#4adc5c" d="M1333,-440.753C1333,-435.276 1333,-429.521 1333,-424.051"/>
<polygon fill="#4adc5c" stroke="#4adc5c" points="1333,-440.813 1328.5,-450.813 1333,-445.813 1333,-450.813 1333,-450.813 1333,-450.813 1333,-445.813 1337.5,-450.813 1333,-440.813 1333,-440.813"/>
<polygon fill="#4adc5c" stroke="#4adc5c" points="1333,-424.029 1337.5,-414.029 1333,-419.029 1333,-414.029 1333,-414.029 1333,-414.029 1333,-419.029 1328.5,-414.029 1333,-424.029 1333,-424.029"/>
</g>
<!-- Stadium&#45;&gt;Court -->
<g id="edge53" class="edge"><title>Stadium&#45;&gt;Court</title>
<path fill="none" stroke="#ac612b" d="M1363.24,-449.739C1413.65,-419.301 1514.2,-358.581 1563.87,-328.592"/>
<ellipse fill="none" stroke="#ac612b" cx="1359.5" cy="-452" rx="4.00002" ry="4.00002"/>
<polygon fill="#ac612b" stroke="#ac612b" points="1563.96,-328.534 1574.85,-327.217 1568.24,-325.949 1572.52,-323.365 1572.52,-323.365 1572.52,-323.365 1568.24,-325.949 1570.2,-319.512 1563.96,-328.534 1563.96,-328.534"/>
</g>
<!-- Stadium&#45;&gt;Event -->
<g id="edge49" class="edge"><title>Stadium&#45;&gt;Event</title>
<path fill="none" stroke="#cc5497" d="M1285.78,-460.774C1265.1,-455.728 1241.6,-447.232 1224,-433 1209.14,-420.978 1151.45,-313.192 1125.17,-263.226"/>
<polygon fill="#cc5497" stroke="#cc5497" points="1285.91,-460.803 1294.69,-467.376 1290.79,-461.894 1295.67,-462.985 1295.67,-462.985 1295.67,-462.985 1290.79,-461.894 1296.65,-458.593 1285.91,-460.803 1285.91,-460.803"/>
<polygon fill="#cc5497" stroke="#cc5497" points="1125.15,-263.182 1124.49,-252.236 1122.83,-258.755 1120.5,-254.327 1120.5,-254.327 1120.5,-254.327 1122.83,-258.755 1116.52,-256.418 1125.15,-263.182 1125.15,-263.182"/>
</g>
<!-- Stadium&#45;&gt;Order -->
<g id="edge50" class="edge"><title>Stadium&#45;&gt;Order</title>
<path fill="none" stroke="#12e466" d="M1284.85,-468.306C1190.15,-466.168 978.966,-447.397 865,-328 847.433,-309.596 846,-299.442 846,-274 846,-274 846,-274 846,-163 846,-148.651 846,-132.671 846,-119.511"/>
<ellipse fill="none" stroke="#12e466" cx="1289.1" cy="-468.383" rx="4" ry="4"/>
<polygon fill="#12e466" stroke="#12e466" points="846,-119.216 850.5,-109.216 846,-114.216 846,-109.216 846,-109.216 846,-109.216 846,-114.216 841.5,-109.216 846,-119.216 846,-119.216"/>
</g>
<!-- Stadium&#45;&gt;Picture -->
<g id="edge47" class="edge"><title>Stadium&#45;&gt;Picture</title>
<path fill="none" stroke="#c1365c" d="M1380.69,-468.078C1536.42,-467.71 2020,-461.384 2020,-397 2020,-397 2020,-397 2020,-163 2020,-133.659 1990.56,-114.983 1964.46,-104.191"/>
<ellipse fill="none" stroke="#c1365c" cx="1376.65" cy="-468.085" rx="4" ry="4"/>
<polygon fill="#c1365c" stroke="#c1365c" points="1964.39,-104.163 1956.68,-96.3674 1959.72,-102.365 1955.06,-100.566 1955.06,-100.566 1955.06,-100.566 1959.72,-102.365 1953.44,-104.765 1964.39,-104.163 1964.39,-104.163"/>
</g>
<!-- Stadium&#45;&gt;ProductService -->
<g id="edge51" class="edge"><title>Stadium&#45;&gt;ProductService</title>
<path fill="none" stroke="#4e5030" d="M1310.76,-446.275C1302.93,-437.133 1295.07,-425.866 1291,-414 1285.81,-398.866 1289.03,-393.879 1291,-378 1299.96,-305.684 1301.89,-285.802 1331,-219 1338.83,-201.031 1347.33,-200.036 1355,-182 1363.61,-161.76 1369.02,-137.387 1372.19,-119.113"/>
<ellipse fill="none" stroke="#4e5030" cx="1313.46" cy="-449.272" rx="4.00002" ry="4.00002"/>
<polygon fill="#4e5030" stroke="#4e5030" points="1372.21,-119.007 1378.25,-109.853 1373.01,-114.071 1373.8,-109.135 1373.8,-109.135 1373.8,-109.135 1373.01,-114.071 1369.36,-108.417 1372.21,-119.007 1372.21,-119.007"/>
</g>
<!-- Stadium&#45;&gt;Review -->
<g id="edge48" class="edge"><title>Stadium&#45;&gt;Review</title>
<path fill="none" stroke="#17edfd" d="M1379.84,-464.276C1507.86,-453.03 1858.65,-414.714 1927,-328 1981.61,-258.723 1889.05,-157.936 1841.96,-113.929"/>
<ellipse fill="none" stroke="#17edfd" cx="1375.72" cy="-464.633" rx="4" ry="4"/>
<polygon fill="#17edfd" stroke="#17edfd" points="1841.91,-113.887 1837.59,-103.808 1838.23,-110.505 1834.55,-107.122 1834.55,-107.122 1834.55,-107.122 1838.23,-110.505 1831.5,-110.436 1841.91,-113.887 1841.91,-113.887"/>
</g>
<!-- Stadium&#45;&gt;Service -->
<g id="edge52" class="edge"><title>Stadium&#45;&gt;Service</title>
<path fill="none" stroke="#08a9cf" d="M1377.21,-457.347C1446.99,-439.069 1584.92,-396.9 1684,-328 1730.5,-295.667 1761.93,-274.362 1750,-219 1740.45,-174.693 1732.21,-163.975 1706,-127 1703.32,-123.226 1700.33,-119.371 1697.29,-115.665"/>
<polygon fill="#08a9cf" stroke="#08a9cf" points="1377.11,-457.374 1366.3,-455.513 1372.26,-458.623 1367.42,-459.871 1367.42,-459.871 1367.42,-459.871 1372.26,-458.623 1368.55,-464.228 1377.11,-457.374 1377.11,-457.374"/>
<polygon fill="#08a9cf" stroke="#08a9cf" points="1697.15,-115.505 1694.12,-104.967 1693.92,-111.691 1690.69,-107.877 1690.69,-107.877 1690.69,-107.877 1693.92,-111.691 1687.25,-110.788 1697.15,-115.505 1697.15,-115.505"/>
</g>
<!-- StadiumUser -->
<g id="node30" class="node"><title>StadiumUser</title>
<ellipse fill="none" stroke="black" cx="754" cy="-560.5" rx="56.07" ry="18"/>
<text text-anchor="middle" x="754" y="-556.3" font-family="Times,serif" font-size="14.00">StadiumUser</text>
</g>
<!-- StadiumUser&#45;&gt;Event -->
<g id="edge56" class="edge"><title>StadiumUser&#45;&gt;Event</title>
<path fill="none" stroke="#242053" d="M819.789,-556.986C926.128,-551.109 1124,-531.863 1124,-470 1124,-470 1124,-470 1124,-352 1124,-322.107 1119.87,-288.045 1116.45,-264.998"/>
<polygon fill="#242053" stroke="#242053" points="819.779,-556.987 809.556,-553.021 814.786,-557.251 809.793,-557.514 809.793,-557.514 809.793,-557.514 814.786,-557.251 810.031,-562.008 819.779,-556.987 819.779,-556.987"/>
<polygon fill="#242053" stroke="#242053" points="1116.43,-264.821 1119.35,-254.253 1115.67,-259.88 1114.9,-254.938 1114.9,-254.938 1114.9,-254.938 1115.67,-259.88 1110.46,-255.623 1116.43,-264.821 1116.43,-264.821"/>
</g>
<!-- StadiumUser&#45;&gt;EventChange -->
<g id="edge57" class="edge"><title>StadiumUser&#45;&gt;EventChange</title>
<path fill="none" stroke="#070b3a" d="M722.981,-538.739C712.61,-532.862 700.704,-527.198 689,-524 574.251,-492.642 272.163,-519.711 154,-506 84.1787,-497.899 0,-540.29 0,-470 0,-470 0,-470 0,-90 0,-59.9393 28.9138,-42.149 57.6184,-31.8943"/>
<polygon fill="#070b3a" stroke="#070b3a" points="723.061,-538.787 729.353,-547.769 727.358,-541.344 731.654,-543.902 731.654,-543.902 731.654,-543.902 727.358,-541.344 733.956,-540.035 723.061,-538.787 723.061,-538.787"/>
<polygon fill="#070b3a" stroke="#070b3a" points="57.8065,-31.8323 68.713,-32.972 62.5547,-30.2654 67.3029,-28.6986 67.3029,-28.6986 67.3029,-28.6986 62.5547,-30.2654 65.8928,-24.4253 57.8065,-31.8323 57.8065,-31.8323"/>
</g>
<!-- StadiumUser&#45;&gt;Order -->
<g id="edge55" class="edge"><title>StadiumUser&#45;&gt;Order</title>
<path fill="none" stroke="#c0476f" d="M719.805,-540.729C709.882,-535.308 699.02,-529.398 689,-524 589.887,-470.603 411.313,-465.624 482,-378 547.954,-296.242 628.661,-390.619 713,-328 787.275,-272.853 767.97,-226.245 814,-146 819.393,-136.599 825.425,-126.352 830.786,-117.336"/>
<ellipse fill="none" stroke="#c0476f" cx="723.33" cy="-542.657" rx="4.00002" ry="4.00002"/>
<polygon fill="#c0476f" stroke="#c0476f" points="830.951,-117.06 839.939,-110.779 833.513,-112.766 836.075,-108.473 836.075,-108.473 836.075,-108.473 833.513,-112.766 832.21,-106.167 830.951,-117.06 830.951,-117.06"/>
</g>
<!-- StadiumUser&#45;&gt;Product -->
<g id="edge60" class="edge"><title>StadiumUser&#45;&gt;Product</title>
<path fill="none" stroke="#2dc4b8" d="M817.895,-557.533C932.512,-552.816 1179.95,-537.208 1382,-487 1468.59,-465.484 1488.41,-452.287 1569,-414 1639.11,-380.691 1681.9,-395.05 1721,-328 1745.99,-285.149 1730.01,-256.03 1697,-219 1677.12,-196.697 1646.14,-182.968 1621.05,-174.937"/>
<ellipse fill="none" stroke="#2dc4b8" cx="813.872" cy="-557.694" rx="4" ry="4"/>
<ellipse fill="#2dc4b8" stroke="#2dc4b8" cx="1616.96" cy="-173.692" rx="4.00001" ry="4.00001"/>
</g>
<!-- StadiumUser&#45;&gt;Stadium -->
<g id="edge59" class="edge"><title>StadiumUser&#45;&gt;Stadium</title>
<path fill="none" stroke="#6151c6" d="M813.372,-552.054C888.93,-542.389 1023.4,-524.552 1138,-506 1190.19,-497.551 1249.94,-486.283 1289.4,-478.619"/>
<ellipse fill="none" stroke="#6151c6" cx="809.319" cy="-552.571" rx="4.00001" ry="4.00001"/>
<ellipse fill="#6151c6" stroke="#6151c6" cx="1293.57" cy="-477.806" rx="4.00001" ry="4.00001"/>
</g>
<!-- StadiumUser&#45;&gt;Wallet -->
<g id="edge58" class="edge"><title>StadiumUser&#45;&gt;Wallet</title>
<path fill="none" stroke="#1f2803" d="M724.215,-539.693C713.543,-533.573 701.141,-527.521 689,-524 621.949,-504.554 63,-539.814 63,-470 63,-470 63,-470 63,-309 63,-269.11 350.357,-247.227 459.032,-240.377"/>
<ellipse fill="none" stroke="#1f2803" cx="727.865" cy="-541.865" rx="4.00002" ry="4.00002"/>
<ellipse fill="#1f2803" stroke="#1f2803" cx="463.162" cy="-240.12" rx="4" ry="4"/>
</g>
<!-- StaticPage -->
<g id="node31" class="node"><title>StaticPage</title>
<ellipse fill="none" stroke="black" cx="2163" cy="-560.5" rx="47.3736" ry="18"/>
<text text-anchor="middle" x="2163" y="-556.3" font-family="Times,serif" font-size="14.00">StaticPage</text>
</g>
<!-- User -->
<g id="node32" class="node"><title>User</title>
<ellipse fill="none" stroke="black" cx="1069" cy="-310" rx="27" ry="18"/>
<text text-anchor="middle" x="1069" y="-305.8" font-family="Times,serif" font-size="14.00">User</text>
</g>
<!-- User&#45;&gt;Event -->
<g id="edge62" class="edge"><title>User&#45;&gt;Event</title>
<path fill="none" stroke="#ec689d" d="M1083.96,-284.293C1088.06,-277.526 1092.51,-270.181 1096.63,-263.377"/>
<polygon fill="#ec689d" stroke="#ec689d" points="1083.94,-284.335 1074.91,-290.558 1081.35,-288.612 1078.76,-292.889 1078.76,-292.889 1078.76,-292.889 1081.35,-288.612 1082.61,-295.22 1083.94,-284.335 1083.94,-284.335"/>
<polygon fill="#ec689d" stroke="#ec689d" points="1096.8,-263.094 1105.83,-256.871 1099.39,-258.817 1101.98,-254.54 1101.98,-254.54 1101.98,-254.54 1099.39,-258.817 1098.13,-252.209 1096.8,-263.094 1096.8,-263.094"/>
</g>
<!-- User&#45;&gt;EventChange -->
<g id="edge63" class="edge"><title>User&#45;&gt;EventChange</title>
<path fill="none" stroke="#b36862" d="M1097.93,-292.634C1118.57,-280.518 1144.01,-264.524 1152,-255 1188.74,-211.184 1212.62,-158.659 1165,-127 1108.43,-89.3871 1088.33,-87.6745 1022,-73 861.861,-37.5729 363.799,-24.085 181.623,-20.2574"/>
<polygon fill="#b36862" stroke="#b36862" points="1097.81,-292.705 1086.9,-293.832 1093.49,-295.215 1089.16,-297.724 1089.16,-297.724 1089.16,-297.724 1093.49,-295.215 1091.42,-301.616 1097.81,-292.705 1097.81,-292.705"/>
<polygon fill="#b36862" stroke="#b36862" points="181.374,-20.2524 171.469,-15.5463 176.375,-20.1488 171.376,-20.0453 171.376,-20.0453 171.376,-20.0453 176.375,-20.1488 171.283,-24.5444 181.374,-20.2524 181.374,-20.2524"/>
</g>
<!-- User&#45;&gt;Order -->
<g id="edge61" class="edge"><title>User&#45;&gt;Order</title>
<path fill="none" stroke="#a5f135" d="M1049.24,-288.212C1025.41,-263.107 984.163,-219.565 949,-182 926.219,-157.662 923.329,-148.673 898,-127 891.047,-121.05 883.051,-115.233 875.447,-110.103"/>
<ellipse fill="none" stroke="#a5f135" cx="1052.16" cy="-291.282" rx="4.00002" ry="4.00002"/>
<polygon fill="#a5f135" stroke="#a5f135" points="875.152,-109.909 869.253,-100.665 870.969,-107.169 866.787,-104.429 866.787,-104.429 866.787,-104.429 870.969,-107.169 864.321,-108.193 875.152,-109.909 875.152,-109.909"/>
</g>
<!-- User&#45;&gt;Wallet -->
<g id="edge64" class="edge"><title>User&#45;&gt;Wallet</title>
<path fill="none" stroke="#45c9f0" d="M1036.08,-300.567C1023.32,-297.527 1008.54,-294.286 995,-292 827.537,-263.73 625.583,-247.048 540.699,-240.817"/>
<ellipse fill="none" stroke="#45c9f0" cx="1040.25" cy="-301.58" rx="4.00001" ry="4.00001"/>
<ellipse fill="#45c9f0" stroke="#45c9f0" cx="536.604" cy="-240.519" rx="4" ry="4"/>
</g>
<!-- Wallet&#45;&gt;Deposit -->
<g id="edge65" class="edge"><title>Wallet&#45;&gt;Deposit</title>
<path fill="none" stroke="#711675" d="M466.787,-222.129C438.085,-210.141 396.651,-192.837 366.917,-180.418"/>
<ellipse fill="none" stroke="#711675" cx="470.858" cy="-223.829" rx="4.00001" ry="4.00001"/>
<polygon fill="#711675" stroke="#711675" points="366.544,-180.263 359.051,-172.256 361.93,-178.336 357.316,-176.409 357.316,-176.409 357.316,-176.409 361.93,-178.336 355.582,-180.561 366.544,-180.263 366.544,-180.263"/>
</g>
<!-- Wallet&#45;&gt;DepositRequest -->
<g id="edge66" class="edge"><title>Wallet&#45;&gt;DepositRequest</title>
<path fill="none" stroke="#4a3f44" d="M462.615,-226.91C412.673,-214.766 323.713,-193.136 265.285,-178.929"/>
<ellipse fill="none" stroke="#4a3f44" cx="466.508" cy="-227.856" rx="4.00001" ry="4.00001"/>
<polygon fill="#4a3f44" stroke="#4a3f44" points="265.181,-178.904 256.527,-172.168 260.323,-177.722 255.464,-176.541 255.464,-176.541 255.464,-176.541 260.323,-177.722 254.401,-180.914 265.181,-178.904 265.181,-178.904"/>
</g>
<!-- Withdrawal -->
<g id="node34" class="node"><title>Withdrawal</title>
<ellipse fill="none" stroke="black" cx="437" cy="-164" rx="51.5002" ry="18"/>
<text text-anchor="middle" x="437" y="-159.8" font-family="Times,serif" font-size="14.00">Withdrawal</text>
</g>
<!-- Wallet&#45;&gt;Withdrawal -->
<g id="edge67" class="edge"><title>Wallet&#45;&gt;Withdrawal</title>
<path fill="none" stroke="#4f631f" d="M480.999,-214.586C473.829,-206.505 465.627,-197.262 458.263,-188.963"/>
<ellipse fill="none" stroke="#4f631f" cx="483.675" cy="-217.602" rx="4.00002" ry="4.00002"/>
<polygon fill="#4f631f" stroke="#4f631f" points="458.157,-188.844 454.886,-178.377 454.839,-185.104 451.52,-181.364 451.52,-181.364 451.52,-181.364 454.839,-185.104 448.154,-184.351 458.157,-188.844 458.157,-188.844"/>
</g>
<!-- WithdrawalRequest -->
<g id="node35" class="node"><title>WithdrawalRequest</title>
<ellipse fill="none" stroke="black" cx="586" cy="-164" rx="79.9819" ry="18"/>
<text text-anchor="middle" x="586" y="-159.8" font-family="Times,serif" font-size="14.00">WithdrawalRequest</text>
</g>
<!-- Wallet&#45;&gt;WithdrawalRequest -->
<g id="edge68" class="edge"><title>Wallet&#45;&gt;WithdrawalRequest</title>
<path fill="none" stroke="#01c28b" d="M523.635,-216.488C534.307,-207.676 546.992,-197.204 558.126,-188.012"/>
<ellipse fill="none" stroke="#01c28b" cx="520.488" cy="-219.085" rx="4.00002" ry="4.00002"/>
<polygon fill="#01c28b" stroke="#01c28b" points="558.197,-187.954 568.773,-185.058 562.052,-184.771 565.908,-181.588 565.908,-181.588 565.908,-181.588 562.052,-184.771 563.043,-178.117 558.197,-187.954 558.197,-187.954"/>
</g>
<!-- WithdrawalRequestData -->
<g id="node36" class="node"><title>WithdrawalRequestData</title>
<polygon fill="none" stroke="black" points="2381.56,-578.5 2228.44,-578.5 2228.44,-542.5 2381.56,-542.5 2381.56,-578.5"/>
<text text-anchor="middle" x="2305" y="-556.3" font-family="Times,serif" font-size="14.00">WithdrawalRequestData</text>
</g>
</g>
</svg>
