<?xml version="1.0" encoding="UTF-8" standalone="no"?>
<!DOCTYPE svg PUBLIC "-//W3C//DTD SVG 1.1//EN"
 "http://www.w3.org/Graphics/SVG/1.1/DTD/svg11.dtd">
<!-- Generated by graphviz version 2.38.0 (20140413.2041)
 -->
<!-- Title: models_diagram Pages: 1 -->
<svg width="1223pt" height="369pt"
 viewBox="0.00 0.00 1222.63 369.00" xmlns="http://www.w3.org/2000/svg" xmlns:xlink="http://www.w3.org/1999/xlink">
<g id="graph0" class="graph" transform="scale(1 1) rotate(0) translate(4 365)">
<title>models_diagram</title>
<polygon fill="white" stroke="none" points="-4,4 -4,-365 1218.63,-365 1218.63,4 -4,4"/>
<!-- _diagram_info -->
<g id="node1" class="node"><title>_diagram_info</title>
<text text-anchor="start" x="239.79" y="-346.6" font-family="Times,serif" font-size="13.00">Models diagram</text>
<text text-anchor="start" x="239.79" y="-333.6" font-family="Times,serif" font-size="13.00">Date: May 20 2015 &#45; 13:29</text>
<text text-anchor="start" x="239.79" y="-320.6" font-family="Times,serif" font-size="13.00">Migration version: 20150518120610</text>
<text text-anchor="start" x="239.79" y="-307.6" font-family="Times,serif" font-size="13.00">Generated by RailRoady 1.3.0</text>
<text text-anchor="start" x="239.79" y="-294.6" font-family="Times,serif" font-size="13.00">http://railroady.prestonlee.com</text>
</g>
<!-- Admin -->
<g id="node2" class="node"><title>Admin</title>
<ellipse fill="none" stroke="black" cx="576.478" cy="-234" rx="34.8458" ry="18"/>
<text text-anchor="middle" x="576.478" y="-229.8" font-family="Times,serif" font-size="14.00">Admin</text>
</g>
<!-- Event -->
<g id="node12" class="node"><title>Event</title>
<ellipse fill="none" stroke="black" cx="563.478" cy="-90" rx="30.9706" ry="18"/>
<text text-anchor="middle" x="563.478" y="-85.8" font-family="Times,serif" font-size="14.00">Event</text>
</g>
<!-- Admin&#45;&gt;Event -->
<g id="edge2" class="edge"><title>Admin&#45;&gt;Event</title>
<path fill="none" stroke="#e2c1df" d="M578.756,-205.679C579.744,-188.011 580.148,-164.558 577.478,-144 576.345,-135.277 574.206,-125.945 571.934,-117.58"/>
<polygon fill="#e2c1df" stroke="#e2c1df" points="578.743,-205.876 573.597,-215.559 578.415,-210.865 578.087,-215.854 578.087,-215.854 578.087,-215.854 578.415,-210.865 582.578,-216.15 578.743,-205.876 578.743,-205.876"/>
<polygon fill="#e2c1df" stroke="#e2c1df" points="571.931,-117.57 573.48,-106.714 570.544,-112.766 569.156,-107.962 569.156,-107.962 569.156,-107.962 570.544,-112.766 564.833,-109.211 571.931,-117.57 571.931,-117.57"/>
</g>
<!-- EventChange -->
<g id="node13" class="node"><title>EventChange</title>
<ellipse fill="none" stroke="black" cx="426.478" cy="-18" rx="57.9979" ry="18"/>
<text text-anchor="middle" x="426.478" y="-13.8" font-family="Times,serif" font-size="14.00">EventChange</text>
</g>
<!-- Admin&#45;&gt;EventChange -->
<g id="edge3" class="edge"><title>Admin&#45;&gt;EventChange</title>
<path fill="none" stroke="#7210c6" d="M591.341,-207.622C609.22,-173.393 633.334,-112.106 603.478,-72 589.247,-52.8828 531.9,-38.1017 486.286,-29.0641"/>
<polygon fill="#7210c6" stroke="#7210c6" points="591.282,-207.73 582.558,-214.373 588.898,-212.125 586.513,-216.519 586.513,-216.519 586.513,-216.519 588.898,-212.125 590.469,-218.665 591.282,-207.73 591.282,-207.73"/>
<polygon fill="#7210c6" stroke="#7210c6" points="486.276,-29.0621 477.309,-22.7494 481.366,-28.1151 476.457,-27.168 476.457,-27.168 476.457,-27.168 481.366,-28.1151 475.605,-31.5865 486.276,-29.0621 486.276,-29.0621"/>
</g>
<!-- Order -->
<g id="node14" class="node"><title>Order</title>
<ellipse fill="none" stroke="black" cx="504.478" cy="-162" rx="30.9619" ry="18"/>
<text text-anchor="middle" x="504.478" y="-157.8" font-family="Times,serif" font-size="14.00">Order</text>
</g>
<!-- Admin&#45;&gt;Order -->
<g id="edge1" class="edge"><title>Admin&#45;&gt;Order</title>
<path fill="none" stroke="#d71839" d="M554.81,-211.933C546.016,-203.384 535.859,-193.509 526.982,-184.879"/>
<ellipse fill="none" stroke="#d71839" cx="557.987" cy="-215.023" rx="4.00002" ry="4.00002"/>
<polygon fill="#d71839" stroke="#d71839" points="526.747,-184.65 522.714,-174.453 523.162,-181.165 519.577,-177.68 519.577,-177.68 519.577,-177.68 523.162,-181.165 516.44,-180.906 526.747,-184.65 526.747,-184.65"/>
</g>
<!-- Wallet -->
<g id="node22" class="node"><title>Wallet</title>
<ellipse fill="none" stroke="black" cx="270.478" cy="-162" rx="32.9423" ry="18"/>
<text text-anchor="middle" x="270.478" y="-157.8" font-family="Times,serif" font-size="14.00">Wallet</text>
</g>
<!-- Admin&#45;&gt;Wallet -->
<g id="edge4" class="edge"><title>Admin&#45;&gt;Wallet</title>
<path fill="none" stroke="#99e021" d="M537.463,-224.075C478.26,-210.532 366.464,-184.958 308.098,-171.606"/>
<ellipse fill="none" stroke="#99e021" cx="541.554" cy="-225.011" rx="4.00001" ry="4.00001"/>
<ellipse fill="#99e021" stroke="#99e021" cx="304.128" cy="-170.698" rx="4.00001" ry="4.00001"/>
</g>
<!-- Category -->
<g id="node3" class="node"><title>Category</title>
<ellipse fill="none" stroke="black" cx="773.478" cy="-324.5" rx="42.5456" ry="18"/>
<text text-anchor="middle" x="773.478" y="-320.3" font-family="Times,serif" font-size="14.00">Category</text>
</g>
<!-- Stadium -->
<g id="node19" class="node"><title>Stadium</title>
<ellipse fill="none" stroke="black" cx="773.478" cy="-234" rx="39.6731" ry="18"/>
<text text-anchor="middle" x="773.478" y="-229.8" font-family="Times,serif" font-size="14.00">Stadium</text>
</g>
<!-- Category&#45;&gt;Stadium -->
<g id="edge5" class="edge"><title>Category&#45;&gt;Stadium</title>
<path fill="none" stroke="#37ae2a" d="M773.478,-298.189C773.478,-286.971 773.478,-273.752 773.478,-262.311"/>
<ellipse fill="none" stroke="#37ae2a" cx="773.478" cy="-302.436" rx="4" ry="4"/>
<polygon fill="#37ae2a" stroke="#37ae2a" points="773.478,-262.011 777.978,-252.011 773.478,-257.011 773.478,-252.011 773.478,-252.011 773.478,-252.011 773.478,-257.011 768.978,-252.011 773.478,-262.011 773.478,-262.011"/>
</g>
<!-- Coach -->
<g id="node4" class="node"><title>Coach</title>
<ellipse fill="none" stroke="black" cx="274.478" cy="-234" rx="32.8994" ry="18"/>
<text text-anchor="middle" x="274.478" y="-229.8" font-family="Times,serif" font-size="14.00">Coach</text>
</g>
<!-- Coach&#45;&gt;Event -->
<g id="edge7" class="edge"><title>Coach&#45;&gt;Event</title>
<path fill="none" stroke="#b3d6b5" d="M302.571,-213.437C331.11,-194.128 377.032,-164.587 419.478,-144 454.856,-126.841 497.307,-111.851 526.915,-102.232"/>
<polygon fill="#b3d6b5" stroke="#b3d6b5" points="302.203,-213.688 291.406,-215.605 298.073,-216.505 293.942,-219.323 293.942,-219.323 293.942,-219.323 298.073,-216.505 296.478,-223.04 302.203,-213.688 302.203,-213.688"/>
<polygon fill="#b3d6b5" stroke="#b3d6b5" points="527.296,-102.11 538.192,-103.344 532.058,-100.584 536.819,-99.0585 536.819,-99.0585 536.819,-99.0585 532.058,-100.584 535.446,-94.7731 527.296,-102.11 527.296,-102.11"/>
</g>
<!-- Coach&#45;&gt;EventChange -->
<g id="edge8" class="edge"><title>Coach&#45;&gt;EventChange</title>
<path fill="none" stroke="#310232" d="M234.627,-224.601C147.879,-204.627 -44.9873,-150.059 23.4781,-72 45.2846,-47.1379 251.234,-30.2686 359.961,-23.0172"/>
<polygon fill="#310232" stroke="#310232" points="234.655,-224.607 243.418,-231.199 239.532,-225.708 244.41,-226.81 244.41,-226.81 244.41,-226.81 239.532,-225.708 245.401,-222.42 234.655,-224.607 234.655,-224.607"/>
<polygon fill="#310232" stroke="#310232" points="360.192,-23.0021 370.465,-26.8358 365.181,-22.6738 370.17,-22.3455 370.17,-22.3455 370.17,-22.3455 365.181,-22.6738 369.875,-17.8552 360.192,-23.0021 360.192,-23.0021"/>
</g>
<!-- Coach&#45;&gt;Order -->
<g id="edge6" class="edge"><title>Coach&#45;&gt;Order</title>
<path fill="none" stroke="#b6d5da" d="M307.256,-219.332C310.357,-218.16 313.466,-217.031 316.478,-216 367.654,-198.488 428.042,-182.223 466.295,-172.45"/>
<ellipse fill="none" stroke="#b6d5da" cx="303.356" cy="-220.848" rx="4.00001" ry="4.00001"/>
<polygon fill="#b6d5da" stroke="#b6d5da" points="466.778,-172.327 477.577,-174.232 471.624,-171.099 476.471,-169.87 476.471,-169.87 476.471,-169.87 471.624,-171.099 475.365,-165.508 466.778,-172.327 466.778,-172.327"/>
</g>
<!-- Coach&#45;&gt;Wallet -->
<g id="edge9" class="edge"><title>Coach&#45;&gt;Wallet</title>
<path fill="none" stroke="#e6a7bb" d="M273.029,-207.64C272.669,-201.348 272.284,-194.605 271.925,-188.316"/>
<ellipse fill="none" stroke="#e6a7bb" cx="273.261" cy="-211.703" rx="4" ry="4"/>
<ellipse fill="#e6a7bb" stroke="#e6a7bb" cx="271.684" cy="-184.098" rx="4" ry="4"/>
</g>
<!-- Court -->
<g id="node5" class="node"><title>Court</title>
<ellipse fill="none" stroke="black" cx="773.478" cy="-162" rx="30.0035" ry="18"/>
<text text-anchor="middle" x="773.478" y="-157.8" font-family="Times,serif" font-size="14.00">Court</text>
</g>
<!-- Court&#45;&gt;Event -->
<g id="edge10" class="edge"><title>Court&#45;&gt;Event</title>
<path fill="none" stroke="#4d3857" d="M741.352,-148.333C737.367,-146.837 733.337,-145.36 729.478,-144 685.391,-128.461 634.049,-112.372 600.272,-102.057"/>
<ellipse fill="none" stroke="#4d3857" cx="745.168" cy="-149.786" rx="4.00001" ry="4.00001"/>
<polygon fill="#4d3857" stroke="#4d3857" points="599.947,-101.959 591.69,-94.7436 595.164,-100.504 590.38,-99.0489 590.38,-99.0489 590.38,-99.0489 595.164,-100.504 589.071,-103.354 599.947,-101.959 599.947,-101.959"/>
</g>
<!-- SpecialPrice -->
<g id="node18" class="node"><title>SpecialPrice</title>
<ellipse fill="none" stroke="black" cx="773.478" cy="-90" rx="54.1144" ry="18"/>
<text text-anchor="middle" x="773.478" y="-85.8" font-family="Times,serif" font-size="14.00">SpecialPrice</text>
</g>
<!-- Court&#45;&gt;SpecialPrice -->
<g id="edge11" class="edge"><title>Court&#45;&gt;SpecialPrice</title>
<path fill="none" stroke="#e9b268" d="M773.478,-135.64C773.478,-130.063 773.478,-124.132 773.478,-118.476"/>
<ellipse fill="none" stroke="#e9b268" cx="773.478" cy="-139.697" rx="4" ry="4"/>
<polygon fill="#e9b268" stroke="#e9b268" points="773.478,-118.104 777.978,-108.104 773.478,-113.104 773.478,-108.104 773.478,-108.104 773.478,-108.104 773.478,-113.104 768.978,-108.104 773.478,-118.104 773.478,-118.104"/>
</g>
<!-- Customer -->
<g id="node6" class="node"><title>Customer</title>
<ellipse fill="none" stroke="black" cx="369.478" cy="-234" rx="44.4923" ry="18"/>
<text text-anchor="middle" x="369.478" y="-229.8" font-family="Times,serif" font-size="14.00">Customer</text>
</g>
<!-- Customer&#45;&gt;Event -->
<g id="edge13" class="edge"><title>Customer&#45;&gt;Event</title>
<path fill="none" stroke="#07e0b8" d="M391.224,-209.46C409.594,-190.387 437.199,-163.564 464.478,-144 485.172,-129.159 510.523,-115.664 530.391,-106.006"/>
<polygon fill="#07e0b8" stroke="#07e0b8" points="391.075,-209.617 380.922,-213.761 387.629,-213.239 384.183,-216.862 384.183,-216.862 384.183,-216.862 387.629,-213.239 387.443,-219.964 391.075,-209.617 391.075,-209.617"/>
<polygon fill="#07e0b8" stroke="#07e0b8" points="530.634,-105.89 541.597,-105.645 535.147,-103.737 539.66,-101.583 539.66,-101.583 539.66,-101.583 535.147,-103.737 537.722,-97.5221 530.634,-105.89 530.634,-105.89"/>
</g>
<!-- Customer&#45;&gt;EventChange -->
<g id="edge14" class="edge"><title>Customer&#45;&gt;EventChange</title>
<path fill="none" stroke="#b41a99" d="M376.671,-205.996C387.61,-164.927 408.31,-87.2106 419.262,-46.0906"/>
<polygon fill="#b41a99" stroke="#b41a99" points="376.62,-206.186 369.698,-214.691 375.333,-211.018 374.046,-215.849 374.046,-215.849 374.046,-215.849 375.333,-211.018 378.395,-217.007 376.62,-206.186 376.62,-206.186"/>
<polygon fill="#b41a99" stroke="#b41a99" points="419.314,-45.8956 426.237,-37.3907 420.601,-41.064 421.888,-36.2325 421.888,-36.2325 421.888,-36.2325 420.601,-41.064 417.54,-35.0742 419.314,-45.8956 419.314,-45.8956"/>
</g>
<!-- Customer&#45;&gt;Order -->
<g id="edge12" class="edge"><title>Customer&#45;&gt;Order</title>
<path fill="none" stroke="#04867c" d="M403.211,-215.509C424.628,-204.404 452.156,-190.13 473.103,-179.269"/>
<ellipse fill="none" stroke="#04867c" cx="399.379" cy="-217.496" rx="4.00002" ry="4.00002"/>
<polygon fill="#04867c" stroke="#04867c" points="473.341,-179.145 484.29,-178.537 477.78,-176.844 482.219,-174.542 482.219,-174.542 482.219,-174.542 477.78,-176.844 480.147,-170.547 473.341,-179.145 473.341,-179.145"/>
</g>
<!-- Customer&#45;&gt;Wallet -->
<g id="edge15" class="edge"><title>Customer&#45;&gt;Wallet</title>
<path fill="none" stroke="#424b98" d="M341.223,-213.021C327.239,-203.134 310.465,-191.273 296.76,-181.583"/>
<ellipse fill="none" stroke="#424b98" cx="344.731" cy="-215.502" rx="4.00002" ry="4.00002"/>
<ellipse fill="#424b98" stroke="#424b98" cx="293.171" cy="-179.045" rx="4.00002" ry="4.00002"/>
</g>
<!-- Deposit -->
<g id="node7" class="node"><title>Deposit</title>
<ellipse fill="none" stroke="black" cx="341.478" cy="-90" rx="37.7352" ry="18"/>
<text text-anchor="middle" x="341.478" y="-85.8" font-family="Times,serif" font-size="14.00">Deposit</text>
</g>
<!-- DepositRequest -->
<g id="node8" class="node"><title>DepositRequest</title>
<ellipse fill="none" stroke="black" cx="98.4781" cy="-90" rx="66.2167" ry="18"/>
<text text-anchor="middle" x="98.4781" y="-85.8" font-family="Times,serif" font-size="14.00">DepositRequest</text>
</g>
<!-- DepositResponse -->
<g id="node10" class="node"><title>DepositResponse</title>
<ellipse fill="none" stroke="black" cx="98.4781" cy="-18" rx="71.529" ry="18"/>
<text text-anchor="middle" x="98.4781" y="-13.8" font-family="Times,serif" font-size="14.00">DepositResponse</text>
</g>
<!-- DepositRequest&#45;&gt;DepositResponse -->
<g id="edge16" class="edge"><title>DepositRequest&#45;&gt;DepositResponse</title>
<path fill="none" stroke="#bbf063" d="M98.4781,-63.6398C98.4781,-58.0629 98.4781,-52.1319 98.4781,-46.4761"/>
<ellipse fill="none" stroke="#bbf063" cx="98.4782" cy="-67.6966" rx="4" ry="4"/>
<polygon fill="#bbf063" stroke="#bbf063" points="98.4782,-46.1043 102.978,-36.1043 98.4782,-41.1043 98.4781,-36.1043 98.4781,-36.1043 98.4781,-36.1043 98.4782,-41.1043 93.9781,-36.1044 98.4782,-46.1043 98.4782,-46.1043"/>
</g>
<!-- DepositRequestData -->
<g id="node9" class="node"><title>DepositRequestData</title>
<polygon fill="none" stroke="black" points="965.061,-342.5 833.895,-342.5 833.895,-306.5 965.061,-306.5 965.061,-342.5"/>
<text text-anchor="middle" x="899.478" y="-320.3" font-family="Times,serif" font-size="14.00">DepositRequestData</text>
</g>
<!-- DepositResponseData -->
<g id="node11" class="node"><title>DepositResponseData</title>
<polygon fill="none" stroke="black" points="1122.12,-342.5 982.836,-342.5 982.836,-306.5 1122.12,-306.5 1122.12,-342.5"/>
<text text-anchor="middle" x="1052.48" y="-320.3" font-family="Times,serif" font-size="14.00">DepositResponseData</text>
</g>
<!-- Event&#45;&gt;EventChange -->
<g id="edge17" class="edge"><title>Event&#45;&gt;EventChange</title>
<path fill="none" stroke="#d00890" d="M533.959,-73.9175C513.639,-63.5348 486.458,-49.6469 464.515,-38.435"/>
<ellipse fill="none" stroke="#d00890" cx="537.6" cy="-75.7775" rx="4.00002" ry="4.00002"/>
<polygon fill="#d00890" stroke="#d00890" points="464.372,-38.3618 457.514,-29.8045 459.919,-36.0868 455.467,-33.8118 455.467,-33.8118 455.467,-33.8118 459.919,-36.0868 453.419,-37.819 464.372,-38.3618 464.372,-38.3618"/>
</g>
<!-- Order&#45;&gt;Event -->
<g id="edge18" class="edge"><title>Order&#45;&gt;Event</title>
<path fill="none" stroke="#126df0" d="M522.89,-139.155C529.586,-131.211 537.174,-122.209 543.962,-114.155"/>
<ellipse fill="none" stroke="#126df0" cx="520.15" cy="-142.406" rx="4.00002" ry="4.00002"/>
<polygon fill="#126df0" stroke="#126df0" points="543.976,-114.138 553.862,-109.392 547.198,-110.315 550.421,-106.492 550.421,-106.492 550.421,-106.492 547.198,-110.315 546.98,-103.592 543.976,-114.138 543.976,-114.138"/>
</g>
<!-- OrderItem -->
<g id="node15" class="node"><title>OrderItem</title>
<polygon fill="none" stroke="black" points="1214.78,-342.5 1140.17,-342.5 1140.17,-306.5 1214.78,-306.5 1214.78,-342.5"/>
<text text-anchor="middle" x="1177.48" y="-320.3" font-family="Times,serif" font-size="14.00">OrderItem</text>
</g>
<!-- Picture -->
<g id="node16" class="node"><title>Picture</title>
<ellipse fill="none" stroke="black" cx="856.478" cy="-162" rx="35.3129" ry="18"/>
<text text-anchor="middle" x="856.478" y="-157.8" font-family="Times,serif" font-size="14.00">Picture</text>
</g>
<!-- Review -->
<g id="node17" class="node"><title>Review</title>
<ellipse fill="none" stroke="black" cx="946.478" cy="-162" rx="37.2421" ry="18"/>
<text text-anchor="middle" x="946.478" y="-157.8" font-family="Times,serif" font-size="14.00">Review</text>
</g>
<!-- Stadium&#45;&gt;Court -->
<g id="edge20" class="edge"><title>Stadium&#45;&gt;Court</title>
<path fill="none" stroke="#115852" d="M773.478,-207.64C773.478,-202.063 773.478,-196.132 773.478,-190.476"/>
<ellipse fill="none" stroke="#115852" cx="773.478" cy="-211.697" rx="4" ry="4"/>
<polygon fill="#115852" stroke="#115852" points="773.478,-190.104 777.978,-180.104 773.478,-185.104 773.478,-180.104 773.478,-180.104 773.478,-180.104 773.478,-185.104 768.978,-180.104 773.478,-190.104 773.478,-190.104"/>
</g>
<!-- Stadium&#45;&gt;Event -->
<g id="edge19" class="edge"><title>Stadium&#45;&gt;Event</title>
<path fill="none" stroke="#c0c1a2" d="M746.461,-211.677C722.52,-193.095 686.359,-165.787 653.478,-144 634.17,-131.206 611.723,-117.985 594.077,-107.947"/>
<polygon fill="#c0c1a2" stroke="#c0c1a2" points="746.508,-211.713 751.627,-221.411 750.451,-214.788 754.394,-217.862 754.394,-217.862 754.394,-217.862 750.451,-214.788 757.161,-214.313 746.508,-211.713 746.508,-211.713"/>
<polygon fill="#c0c1a2" stroke="#c0c1a2" points="594.036,-107.925 587.541,-99.0894 589.683,-105.466 585.329,-103.008 585.329,-103.008 585.329,-103.008 589.683,-105.466 583.116,-106.926 594.036,-107.925 594.036,-107.925"/>
</g>
<!-- Stadium&#45;&gt;Picture -->
<g id="edge21" class="edge"><title>Stadium&#45;&gt;Picture</title>
<path fill="none" stroke="#295232" d="M797.732,-212.545C808.289,-203.642 820.657,-193.211 831.314,-184.223"/>
<ellipse fill="none" stroke="#295232" cx="794.546" cy="-215.232" rx="4.00002" ry="4.00002"/>
<polygon fill="#295232" stroke="#295232" points="831.428,-184.127 841.973,-181.12 835.25,-180.903 839.072,-177.68 839.072,-177.68 839.072,-177.68 835.25,-180.903 836.171,-174.24 831.428,-184.127 831.428,-184.127"/>
</g>
<!-- Stadium&#45;&gt;Review -->
<g id="edge22" class="edge"><title>Stadium&#45;&gt;Review</title>
<path fill="none" stroke="#113542" d="M809.584,-218.391C838.862,-206.544 879.967,-189.912 909.481,-177.97"/>
<ellipse fill="none" stroke="#113542" cx="805.754" cy="-219.941" rx="4.00001" ry="4.00001"/>
<polygon fill="#113542" stroke="#113542" points="909.742,-177.864 920.7,-178.285 914.377,-175.989 919.012,-174.113 919.012,-174.113 919.012,-174.113 914.377,-175.989 917.324,-169.942 909.742,-177.864 909.742,-177.864"/>
</g>
<!-- StadiumUser -->
<g id="node20" class="node"><title>StadiumUser</title>
<ellipse fill="none" stroke="black" cx="513.478" cy="-324.5" rx="56.07" ry="18"/>
<text text-anchor="middle" x="513.478" y="-320.3" font-family="Times,serif" font-size="14.00">StadiumUser</text>
</g>
<!-- StadiumUser&#45;&gt;Event -->
<g id="edge24" class="edge"><title>StadiumUser&#45;&gt;Event</title>
<path fill="none" stroke="#fd057a" d="M558.14,-306.032C581.211,-294.447 607.242,-276.765 620.478,-252 645.241,-205.67 608.429,-146.355 583.409,-114.218"/>
<polygon fill="#fd057a" stroke="#fd057a" points="557.841,-306.174 546.878,-306.413 553.328,-308.325 548.814,-310.475 548.814,-310.475 548.814,-310.475 553.328,-308.325 550.749,-314.538 557.841,-306.174 557.841,-306.174"/>
<polygon fill="#fd057a" stroke="#fd057a" points="583.298,-114.08 580.545,-103.465 580.167,-110.181 577.036,-106.283 577.036,-106.283 577.036,-106.283 580.167,-110.181 573.528,-109.1 583.298,-114.08 583.298,-114.08"/>
</g>
<!-- StadiumUser&#45;&gt;EventChange -->
<g id="edge25" class="edge"><title>StadiumUser&#45;&gt;EventChange</title>
<path fill="none" stroke="#bab911" d="M481.116,-302.999C470.993,-297.371 459.565,-291.784 448.478,-288 265.664,-225.601 160.111,-320.439 27.4781,-180 4.50371,-155.673 10.4212,-141.093 5.47811,-108 3.11443,-92.1756 -5.10547,-83.9995 5.47811,-72 28.4848,-45.9154 246.663,-29.4731 359.531,-22.6423"/>
<polygon fill="#bab911" stroke="#bab911" points="481.338,-303.127 487.747,-312.025 485.668,-305.627 489.998,-308.128 489.998,-308.128 489.998,-308.128 485.668,-305.627 492.248,-304.231 481.338,-303.127 481.338,-303.127"/>
<polygon fill="#bab911" stroke="#bab911" points="359.803,-22.6262 370.053,-26.5226 364.794,-22.3284 369.785,-22.0306 369.785,-22.0306 369.785,-22.0306 364.794,-22.3284 369.517,-17.5386 359.803,-22.6262 359.803,-22.6262"/>
</g>
<!-- StadiumUser&#45;&gt;Order -->
<g id="edge23" class="edge"><title>StadiumUser&#45;&gt;Order</title>
<path fill="none" stroke="#7670d8" d="M512.053,-298.079C510.404,-268.675 507.7,-220.455 506.008,-190.284"/>
<ellipse fill="none" stroke="#7670d8" cx="512.291" cy="-302.33" rx="4" ry="4"/>
<polygon fill="#7670d8" stroke="#7670d8" points="505.994,-190.037 509.927,-179.801 505.714,-185.045 505.434,-180.053 505.434,-180.053 505.434,-180.053 505.714,-185.045 500.941,-180.305 505.994,-190.037 505.994,-190.037"/>
</g>
<!-- StadiumUser&#45;&gt;Stadium -->
<g id="edge27" class="edge"><title>StadiumUser&#45;&gt;Stadium</title>
<path fill="none" stroke="#d5d1b1" d="M558.295,-308.245C608.106,-291.29 687.723,-264.19 734.875,-248.14"/>
<ellipse fill="none" stroke="#d5d1b1" cx="554.24" cy="-309.625" rx="4.00001" ry="4.00001"/>
<ellipse fill="#d5d1b1" stroke="#d5d1b1" cx="738.933" cy="-246.759" rx="4.00001" ry="4.00001"/>
</g>
<!-- StadiumUser&#45;&gt;Wallet -->
<g id="edge26" class="edge"><title>StadiumUser&#45;&gt;Wallet</title>
<path fill="none" stroke="#dd40a3" d="M482.676,-303.931C472.172,-298.013 460.131,-292.024 448.478,-288 356.485,-256.231 295.386,-326.26 232.478,-252 215.599,-232.075 233.224,-203.537 249.677,-184.189"/>
<ellipse fill="none" stroke="#dd40a3" cx="486.219" cy="-305.985" rx="4.00002" ry="4.00002"/>
<ellipse fill="#dd40a3" stroke="#dd40a3" cx="252.506" cy="-180.999" rx="4.00002" ry="4.00002"/>
</g>
<!-- User -->
<g id="node21" class="node"><title>User</title>
<ellipse fill="none" stroke="black" cx="458.478" cy="-234" rx="27" ry="18"/>
<text text-anchor="middle" x="458.478" y="-229.8" font-family="Times,serif" font-size="14.00">User</text>
</g>
<!-- User&#45;&gt;Event -->
<g id="edge29" class="edge"><title>User&#45;&gt;Event</title>
<path fill="none" stroke="#05d180" d="M491.158,-220.548C509.553,-211.89 531.392,-198.549 544.478,-180 557.176,-162.002 561.679,-137.211 563.146,-118.365"/>
<polygon fill="#05d180" stroke="#05d180" points="491.057,-220.593 480.091,-220.538 486.487,-222.622 481.917,-224.651 481.917,-224.651 481.917,-224.651 486.487,-222.622 483.743,-228.764 491.057,-220.593 491.057,-220.593"/>
<polygon fill="#05d180" stroke="#05d180" points="563.149,-118.305 568.184,-108.563 563.42,-113.312 563.69,-108.32 563.69,-108.32 563.69,-108.32 563.42,-113.312 559.197,-108.076 563.149,-118.305 563.149,-118.305"/>
</g>
<!-- User&#45;&gt;EventChange -->
<g id="edge30" class="edge"><title>User&#45;&gt;EventChange</title>
<path fill="none" stroke="#5c0bfd" d="M454.398,-205.712C448.258,-164.65 436.709,-87.4166 430.565,-46.3297"/>
<polygon fill="#5c0bfd" stroke="#5c0bfd" points="454.435,-205.959 451.463,-216.515 455.174,-210.904 455.914,-215.849 455.914,-215.849 455.914,-215.849 455.174,-210.904 460.364,-215.184 454.435,-205.959 454.435,-205.959"/>
<polygon fill="#5c0bfd" stroke="#5c0bfd" points="430.534,-46.1225 433.505,-35.5669 429.794,-41.1775 429.055,-36.2325 429.055,-36.2325 429.055,-36.2325 429.794,-41.1775 424.604,-36.898 430.534,-46.1225 430.534,-46.1225"/>
</g>
<!-- User&#45;&gt;Order -->
<g id="edge28" class="edge"><title>User&#45;&gt;Order</title>
<path fill="none" stroke="#89b1f9" d="M473.324,-210.409C478.004,-203.287 483.201,-195.379 487.988,-188.094"/>
<ellipse fill="none" stroke="#89b1f9" cx="471.113" cy="-213.773" rx="4.00002" ry="4.00002"/>
<polygon fill="#89b1f9" stroke="#89b1f9" points="488.27,-187.664 497.523,-181.778 491.016,-183.486 493.762,-179.307 493.762,-179.307 493.762,-179.307 491.016,-183.486 490.001,-176.836 488.27,-187.664 488.27,-187.664"/>
</g>
<!-- User&#45;&gt;Wallet -->
<g id="edge31" class="edge"><title>User&#45;&gt;Wallet</title>
<path fill="none" stroke="#770db5" d="M429.911,-219.176C427.411,-218.068 424.909,-216.995 422.478,-216 383.3,-199.972 337.273,-184.357 306.216,-174.277"/>
<ellipse fill="none" stroke="#770db5" cx="433.684" cy="-220.896" rx="4.00002" ry="4.00002"/>
<ellipse fill="#770db5" stroke="#770db5" cx="302.071" cy="-172.939" rx="4.00001" ry="4.00001"/>
</g>
<!-- Wallet&#45;&gt;Deposit -->
<g id="edge32" class="edge"><title>Wallet&#45;&gt;Deposit</title>
<path fill="none" stroke="#76e8e4" d="M291.678,-140.099C300.098,-131.798 309.806,-122.226 318.403,-113.75"/>
<ellipse fill="none" stroke="#76e8e4" cx="288.732" cy="-143.003" rx="4.00002" ry="4.00002"/>
<polygon fill="#76e8e4" stroke="#76e8e4" points="318.49,-113.665 328.77,-109.848 322.05,-110.154 325.611,-106.644 325.611,-106.644 325.611,-106.644 322.05,-110.154 322.451,-103.44 318.49,-113.665 318.49,-113.665"/>
</g>
<!-- Wallet&#45;&gt;DepositRequest -->
<g id="edge33" class="edge"><title>Wallet&#45;&gt;DepositRequest</title>
<path fill="none" stroke="#5a0257" d="M237.098,-147.415C210.368,-136.537 172.622,-121.175 143.266,-109.228"/>
<ellipse fill="none" stroke="#5a0257" cx="241.023" cy="-149.012" rx="4.00001" ry="4.00001"/>
<polygon fill="#5a0257" stroke="#5a0257" points="142.922,-109.088 135.356,-101.15 138.291,-107.203 133.66,-105.318 133.66,-105.318 133.66,-105.318 138.291,-107.203 131.964,-109.486 142.922,-109.088 142.922,-109.088"/>
</g>
<!-- Withdrawal -->
<g id="node23" class="node"><title>Withdrawal</title>
<ellipse fill="none" stroke="black" cx="234.478" cy="-90" rx="51.5002" ry="18"/>
<text text-anchor="middle" x="234.478" y="-85.8" font-family="Times,serif" font-size="14.00">Withdrawal</text>
</g>
<!-- Wallet&#45;&gt;Withdrawal -->
<g id="edge34" class="edge"><title>Wallet&#45;&gt;Withdrawal</title>
<path fill="none" stroke="#ef70f7" d="M258.167,-137.062C254.861,-130.632 251.268,-123.647 247.904,-117.106"/>
<ellipse fill="none" stroke="#ef70f7" cx="260.117" cy="-140.854" rx="4.00002" ry="4.00002"/>
<polygon fill="#ef70f7" stroke="#ef70f7" points="247.772,-116.849 247.2,-105.898 245.485,-112.403 243.198,-107.956 243.198,-107.956 243.198,-107.956 245.485,-112.403 239.197,-110.014 247.772,-116.849 247.772,-116.849"/>
</g>
</g>
</svg>
